<svg xmlns="http://www.w3.org/2000/svg" xmlns:xlink="http://www.w3.org/1999/xlink" id="body_5" preserveAspectRatio="xMinYMin meet" viewBox="0 0 793 1121"><defs><clipPath id="1"><path clip-rule="evenodd" d="M0 841L0 -0.9199829L0 -0.9199829L595.32 -0.9199829L595.32 -0.9199829L595.32 841L595.32 841L0 841z" /></clipPath><clipPath id="2"><path clip-rule="evenodd" d="M8.871E-06 841L595.32 841L595.32 841L595.32 -0.9199829L595.32 -0.9199829L8.871E-06 -0.9199829z" /></clipPath><clipPath id="3"><path clip-rule="evenodd" d="M8.871E-06 841L595.32 841L595.32 841L595.32 -0.9199829L595.32 -0.9199829L8.871E-06 -0.9199829z" /></clipPath><clipPath id="4"><path clip-rule="evenodd" d="M8.871E-06 841L595.32 841L595.32 841L595.32 -0.9199829L595.32 -0.9199829L8.871E-06 -0.9199829z" /></clipPath><clipPath id="5"><path clip-rule="evenodd" d="M8.871E-06 841L595.32 841L595.32 841L595.32 -0.9199829L595.32 -0.9199829L8.871E-06 -0.9199829z" /></clipPath><clipPath id="6"><path clip-rule="evenodd" d="M8.871E-06 841L595.32 841L595.32 841L595.32 -0.9199829L595.32 -0.9199829L8.871E-06 -0.9199829z" /></clipPath><clipPath id="7"><path clip-rule="evenodd" d="M8.871E-06 841L595.32 841L595.32 841L595.32 -0.9199829L595.32 -0.9199829L8.871E-06 -0.9199829z" /></clipPath><clipPath id="8"><path clip-rule="evenodd" d="M8.871E-06 841L595.32 841L595.32 841L595.32 -0.9199829L595.32 -0.9199829L8.871E-06 -0.9199829z" /></clipPath><clipPath id="9"><path clip-rule="evenodd" d="M8.871E-06 841L595.32 841L595.32 841L595.32 -0.9199829L595.32 -0.9199829L8.871E-06 -0.9199829z" /></clipPath><clipPath id="10"><path clip-rule="evenodd" d="M8.871E-06 841L595.32 841L595.32 841L595.32 -0.9199829L595.32 -0.9199829L8.871E-06 -0.9199829z" /></clipPath><clipPath id="11"><path clip-rule="evenodd" d="M8.871E-06 841L595.32 841L595.32 841L595.32 -0.9199829L595.32 -0.9199829L8.871E-06 -0.9199829z" /></clipPath><clipPath id="12"><path clip-rule="evenodd" d="M8.871E-06 841L595.32 841L595.32 841L595.32 -0.9199829L595.32 -0.9199829L8.871E-06 -0.9199829z" /></clipPath><clipPath id="13"><path clip-rule="evenodd" d="M8.871E-06 841L595.32 841L595.32 841L595.32 -0.9199829L595.32 -0.9199829L8.871E-06 -0.9199829z" /></clipPath><clipPath id="14"><path clip-rule="evenodd" d="M8.871E-06 841L595.32 841L595.32 841L595.32 -0.9199829L595.32 -0.9199829L8.871E-06 -0.9199829z" /></clipPath><clipPath id="15"><path clip-rule="evenodd" d="M8.871E-06 841L595.32 841L595.32 841L595.32 -0.9199829L595.32 -0.9199829L8.871E-06 -0.9199829z" /></clipPath><clipPath id="16"><path clip-rule="evenodd" d="M8.871E-06 841L595.32 841L595.32 841L595.32 -0.9199829L595.32 -0.9199829L8.871E-06 -0.9199829z" /></clipPath><clipPath id="17"><path clip-rule="evenodd" d="M8.871E-06 841L595.32 841L595.32 841L595.32 -0.9199829L595.32 -0.9199829L8.871E-06 -0.9199829z" /></clipPath><clipPath id="18"><path clip-rule="evenodd" d="M8.871E-06 841L595.32 841L595.32 841L595.32 -0.9199829L595.32 -0.9199829L8.871E-06 -0.9199829z" /></clipPath><clipPath id="19"><path clip-rule="evenodd" d="M8.871E-06 841L595.32 841L595.32 841L595.32 -0.9199829L595.32 -0.9199829L8.871E-06 -0.9199829z" /></clipPath><clipPath id="20"><path clip-rule="evenodd" d="M8.871E-06 841L595.32 841L595.32 841L595.32 -0.9199829L595.32 -0.9199829L8.871E-06 -0.9199829z" /></clipPath><clipPath id="21"><path clip-rule="evenodd" d="M8.871E-06 841L595.32 841L595.32 841L595.32 -0.9199829L595.32 -0.9199829L8.871E-06 -0.9199829z" /></clipPath><clipPath id="22"><path clip-rule="evenodd" d="M8.871E-06 841L595.32 841L595.32 841L595.32 -0.9199829L595.32 -0.9199829L8.871E-06 -0.9199829z" /></clipPath><clipPath id="23"><path clip-rule="evenodd" d="M8.871E-06 841L595.32 841L595.32 841L595.32 -0.9199829L595.32 -0.9199829L8.871E-06 -0.9199829z" /></clipPath><clipPath id="24"><path clip-rule="evenodd" d="M8.871E-06 841L595.32 841L595.32 841L595.32 -0.9199829L595.32 -0.9199829L8.871E-06 -0.9199829z" /></clipPath><clipPath id="25"><path clip-rule="evenodd" d="M8.871E-06 841L595.32 841L595.32 841L595.32 -0.9199829L595.32 -0.9199829L8.871E-06 -0.9199829z" /></clipPath><clipPath id="26"><path clip-rule="evenodd" d="M8.871E-06 841L595.32 841L595.32 841L595.32 -0.9199829L595.32 -0.9199829L8.871E-06 -0.9199829z" /></clipPath><clipPath id="27"><path clip-rule="evenodd" d="M8.871E-06 841L595.32 841L595.32 841L595.32 -0.9199829L595.32 -0.9199829L8.871E-06 -0.9199829z" /></clipPath><clipPath id="28"><path clip-rule="evenodd" d="M0 840.9999L595.32 840.9999L595.32 840.9999L595.32 -0.9200439L595.32 -0.9200439L0 -0.9200439z" /></clipPath><clipPath id="29"><path clip-rule="evenodd" d="M114.66 91.19L164.5618 91.19L164.5618 91.19L164.5618 67.19025L164.5618 67.19025L114.66 67.19025z" /></clipPath><clipPath id="30"><path clip-rule="evenodd" d="M8.871E-06 841L595.32 841L595.32 841L595.32 -0.9199829L595.32 -0.9199829L8.871E-06 -0.9199829z" /></clipPath><clipPath id="31"><path clip-rule="evenodd" d="M8.871E-06 841L595.32 841L595.32 841L595.32 -0.9199829L595.32 -0.9199829L8.871E-06 -0.9199829z" /></clipPath><clipPath id="32"><path clip-rule="evenodd" d="M8.871E-06 841L595.32 841L595.32 841L595.32 -0.9199829L595.32 -0.9199829L8.871E-06 -0.9199829z" /></clipPath><clipPath id="33"><path clip-rule="evenodd" d="M8.871E-06 841L595.32 841L595.32 841L595.32 -0.9199829L595.32 -0.9199829L8.871E-06 -0.9199829z" /></clipPath><clipPath id="34"><path clip-rule="evenodd" d="M8.871E-06 841L595.32 841L595.32 841L595.32 -0.9199829L595.32 -0.9199829L8.871E-06 -0.9199829z" /></clipPath><clipPath id="35"><path clip-rule="evenodd" d="M8.871E-06 841L595.32 841L595.32 841L595.32 -0.9199829L595.32 -0.9199829L8.871E-06 -0.9199829z" /></clipPath><clipPath id="36"><path clip-rule="evenodd" d="M8.871E-06 841L595.32 841L595.32 841L595.32 -0.9199829L595.32 -0.9199829L8.871E-06 -0.9199829z" /></clipPath><clipPath id="37"><path clip-rule="evenodd" d="M8.871E-06 841L595.32 841L595.32 841L595.32 -0.9199829L595.32 -0.9199829L8.871E-06 -0.9199829z" /></clipPath><clipPath id="38"><path clip-rule="evenodd" d="M8.871E-06 841L595.32 841L595.32 841L595.32 -0.9199829L595.32 -0.9199829L8.871E-06 -0.9199829z" /></clipPath><clipPath id="39"><path clip-rule="evenodd" d="M0 840.9999L595.32 840.9999L595.32 840.9999L595.32 -0.9200439L595.32 -0.9200439L0 -0.9200439z" /></clipPath><clipPath id="40"><path clip-rule="evenodd" d="M95.36 106.89L102.31 106.89L102.31 106.89L102.31 92.98969L102.31 92.98969L95.36 92.98969z" /></clipPath><clipPath id="41"><path clip-rule="evenodd" d="M8.871E-06 841L595.32 841L595.32 841L595.32 -0.9199829L595.32 -0.9199829L8.871E-06 -0.9199829z" /></clipPath><clipPath id="42"><path clip-rule="evenodd" d="M8.871E-06 841L595.32 841L595.32 841L595.32 -0.9199829L595.32 -0.9199829L8.871E-06 -0.9199829z" /></clipPath><clipPath id="43"><path clip-rule="evenodd" d="M8.871E-06 841L595.32 841L595.32 841L595.32 -0.9199829L595.32 -0.9199829L8.871E-06 -0.9199829z" /></clipPath><clipPath id="44"><path clip-rule="evenodd" d="M8.871E-06 841L595.32 841L595.32 841L595.32 -0.9199829L595.32 -0.9199829L8.871E-06 -0.9199829z" /></clipPath><clipPath id="45"><path clip-rule="evenodd" d="M8.871E-06 841L595.32 841L595.32 841L595.32 -0.9199829L595.32 -0.9199829L8.871E-06 -0.9199829z" /></clipPath><clipPath id="46"><path clip-rule="evenodd" d="M8.871E-06 841L595.32 841L595.32 841L595.32 -0.9199829L595.32 -0.9199829L8.871E-06 -0.9199829z" /></clipPath><clipPath id="47"><path clip-rule="evenodd" d="M8.871E-06 841L595.32 841L595.32 841L595.32 -0.9199829L595.32 -0.9199829L8.871E-06 -0.9199829z" /></clipPath><clipPath id="48"><path clip-rule="evenodd" d="M8.871E-06 841L595.32 841L595.32 841L595.32 -0.9199829L595.32 -0.9199829L8.871E-06 -0.9199829z" /></clipPath><clipPath id="49"><path clip-rule="evenodd" d="M8.871E-06 841L595.32 841L595.32 841L595.32 -0.9199829L595.32 -0.9199829L8.871E-06 -0.9199829z" /></clipPath><clipPath id="50"><path clip-rule="evenodd" d="M8.871E-06 841L595.32 841L595.32 841L595.32 -0.9199829L595.32 -0.9199829L8.871E-06 -0.9199829z" /></clipPath><clipPath id="51"><path clip-rule="evenodd" d="M8.871E-06 841L595.32 841L595.32 841L595.32 -0.9199829L595.32 -0.9199829L8.871E-06 -0.9199829z" /></clipPath><clipPath id="52"><path clip-rule="evenodd" d="M8.871E-06 841L595.32 841L595.32 841L595.32 -0.9199829L595.32 -0.9199829L8.871E-06 -0.9199829z" /></clipPath><clipPath id="53"><path clip-rule="evenodd" d="M8.871E-06 841L595.32 841L595.32 841L595.32 -0.9199829L595.32 -0.9199829L8.871E-06 -0.9199829z" /></clipPath><clipPath id="54"><path clip-rule="evenodd" d="M8.871E-06 841L595.32 841L595.32 841L595.32 -0.9199829L595.32 -0.9199829L8.871E-06 -0.9199829z" /></clipPath><clipPath id="55"><path clip-rule="evenodd" d="M8.871E-06 841L595.32 841L595.32 841L595.32 -0.9199829L595.32 -0.9199829L8.871E-06 -0.9199829z" /></clipPath><clipPath id="56"><path clip-rule="evenodd" d="M8.871E-06 841L595.32 841L595.32 841L595.32 -0.9199829L595.32 -0.9199829L8.871E-06 -0.9199829z" /></clipPath><clipPath id="57"><path clip-rule="evenodd" d="M8.871E-06 841L595.32 841L595.32 841L595.32 -0.9199829L595.32 -0.9199829L8.871E-06 -0.9199829z" /></clipPath><clipPath id="58"><path clip-rule="evenodd" d="M8.871E-06 841L595.32 841L595.32 841L595.32 -0.9199829L595.32 -0.9199829L8.871E-06 -0.9199829z" /></clipPath><clipPath id="59"><path clip-rule="evenodd" d="M8.871E-06 841L595.32 841L595.32 841L595.32 -0.9199829L595.32 -0.9199829L8.871E-06 -0.9199829z" /></clipPath><clipPath id="60"><path clip-rule="evenodd" d="M8.871E-06 841L595.32 841L595.32 841L595.32 -0.9199829L595.32 -0.9199829L8.871E-06 -0.9199829z" /></clipPath><clipPath id="61"><path clip-rule="evenodd" d="M8.871E-06 841L595.32 841L595.32 841L595.32 -0.9199829L595.32 -0.9199829L8.871E-06 -0.9199829z" /></clipPath><clipPath id="62"><path clip-rule="evenodd" d="M8.871E-06 841L595.32 841L595.32 841L595.32 -0.9199829L595.32 -0.9199829L8.871E-06 -0.9199829z" /></clipPath><clipPath id="63"><path clip-rule="evenodd" d="M8.871E-06 841L595.32 841L595.32 841L595.32 -0.9199829L595.32 -0.9199829L8.871E-06 -0.9199829z" /></clipPath><clipPath id="64"><path clip-rule="evenodd" d="M8.871E-06 841L595.32 841L595.32 841L595.32 -0.9199829L595.32 -0.9199829L8.871E-06 -0.9199829z" /></clipPath><clipPath id="65"><path clip-rule="evenodd" d="M8.871E-06 841L595.32 841L595.32 841L595.32 -0.9199829L595.32 -0.9199829L8.871E-06 -0.9199829z" /></clipPath><clipPath id="66"><path clip-rule="evenodd" d="M8.871E-06 841L595.32 841L595.32 841L595.32 -0.9199829L595.32 -0.9199829L8.871E-06 -0.9199829z" /></clipPath><clipPath id="67"><path clip-rule="evenodd" d="M8.871E-06 841L595.32 841L595.32 841L595.32 -0.9199829L595.32 -0.9199829L8.871E-06 -0.9199829z" /></clipPath><clipPath id="68"><path clip-rule="evenodd" d="M8.871E-06 841L595.32 841L595.32 841L595.32 -0.9199829L595.32 -0.9199829L8.871E-06 -0.9199829z" /></clipPath><clipPath id="69"><path clip-rule="evenodd" d="M8.871E-06 841L595.32 841L595.32 841L595.32 -0.9199829L595.32 -0.9199829L8.871E-06 -0.9199829z" /></clipPath><clipPath id="70"><path clip-rule="evenodd" d="M8.871E-06 841L595.32 841L595.32 841L595.32 -0.9199829L595.32 -0.9199829L8.871E-06 -0.9199829z" /></clipPath><clipPath id="71"><path clip-rule="evenodd" d="M8.871E-06 841L595.32 841L595.32 841L595.32 -0.9199829L595.32 -0.9199829L8.871E-06 -0.9199829z" /></clipPath><clipPath id="72"><path clip-rule="evenodd" d="M8.871E-06 841L595.32 841L595.32 841L595.32 -0.9199829L595.32 -0.9199829L8.871E-06 -0.9199829z" /></clipPath><clipPath id="73"><path clip-rule="evenodd" d="M8.871E-06 841L595.32 841L595.32 841L595.32 -0.9199829L595.32 -0.9199829L8.871E-06 -0.9199829z" /></clipPath><clipPath id="74"><path clip-rule="evenodd" d="M8.871E-06 841L595.32 841L595.32 841L595.32 -0.9199829L595.32 -0.9199829L8.871E-06 -0.9199829z" /></clipPath><clipPath id="75"><path clip-rule="evenodd" d="M8.871E-06 841L595.32 841L595.32 841L595.32 -0.9199829L595.32 -0.9199829L8.871E-06 -0.9199829z" /></clipPath><clipPath id="76"><path clip-rule="evenodd" d="M8.871E-06 841L595.32 841L595.32 841L595.32 -0.9199829L595.32 -0.9199829L8.871E-06 -0.9199829z" /></clipPath><clipPath id="77"><path clip-rule="evenodd" d="M8.871E-06 841L595.32 841L595.32 841L595.32 -0.9199829L595.32 -0.9199829L8.871E-06 -0.9199829z" /></clipPath><clipPath id="78"><path clip-rule="evenodd" d="M8.871E-06 841L595.32 841L595.32 841L595.32 -0.9199829L595.32 -0.9199829L8.871E-06 -0.9199829z" /></clipPath><clipPath id="79"><path clip-rule="evenodd" d="M8.871E-06 841L595.32 841L595.32 841L595.32 -0.9199829L595.32 -0.9199829L8.871E-06 -0.9199829z" /></clipPath><clipPath id="80"><path clip-rule="evenodd" d="M8.871E-06 841L595.32 841L595.32 841L595.32 -0.9199829L595.32 -0.9199829L8.871E-06 -0.9199829z" /></clipPath><clipPath id="81"><path clip-rule="evenodd" d="M8.871E-06 841L595.32 841L595.32 841L595.32 -0.9199829L595.32 -0.9199829L8.871E-06 -0.9199829z" /></clipPath><clipPath id="82"><path clip-rule="evenodd" d="M8.871E-06 841L595.32 841L595.32 841L595.32 -0.9199829L595.32 -0.9199829L8.871E-06 -0.9199829z" /></clipPath><clipPath id="83"><path clip-rule="evenodd" d="M8.871E-06 841L595.32 841L595.32 841L595.32 -0.9199829L595.32 -0.9199829L8.871E-06 -0.9199829z" /></clipPath><clipPath id="84"><path clip-rule="evenodd" d="M8.871E-06 841L595.32 841L595.32 841L595.32 -0.9199829L595.32 -0.9199829L8.871E-06 -0.9199829z" /></clipPath><clipPath id="85"><path clip-rule="evenodd" d="M8.871E-06 841L595.32 841L595.32 841L595.32 -0.9199829L595.32 -0.9199829L8.871E-06 -0.9199829z" /></clipPath><clipPath id="86"><path clip-rule="evenodd" d="M8.871E-06 841L595.32 841L595.32 841L595.32 -0.9199829L595.32 -0.9199829L8.871E-06 -0.9199829z" /></clipPath><clipPath id="87"><path clip-rule="evenodd" d="M8.871E-06 841L595.32 841L595.32 841L595.32 -0.9199829L595.32 -0.9199829L8.871E-06 -0.9199829z" /></clipPath><clipPath id="88"><path clip-rule="evenodd" d="M8.871E-06 841L595.32 841L595.32 841L595.32 -0.9199829L595.32 -0.9199829L8.871E-06 -0.9199829z" /></clipPath><clipPath id="89"><path clip-rule="evenodd" d="M8.871E-06 841L595.32 841L595.32 841L595.32 -0.9199829L595.32 -0.9199829L8.871E-06 -0.9199829z" /></clipPath><clipPath id="90"><path clip-rule="evenodd" d="M8.871E-06 841L595.32 841L595.32 841L595.32 -0.9199829L595.32 -0.9199829L8.871E-06 -0.9199829z" /></clipPath><clipPath id="91"><path clip-rule="evenodd" d="M8.871E-06 841L595.32 841L595.32 841L595.32 -0.9199829L595.32 -0.9199829L8.871E-06 -0.9199829z" /></clipPath><clipPath id="92"><path clip-rule="evenodd" d="M8.871E-06 841L595.32 841L595.32 841L595.32 -0.9199829L595.32 -0.9199829L8.871E-06 -0.9199829z" /></clipPath><clipPath id="93"><path clip-rule="evenodd" d="M8.871E-06 841L595.32 841L595.32 841L595.32 -0.9199829L595.32 -0.9199829L8.871E-06 -0.9199829z" /></clipPath><clipPath id="94"><path clip-rule="evenodd" d="M8.871E-06 841L595.32 841L595.32 841L595.32 -0.9199829L595.32 -0.9199829L8.871E-06 -0.9199829z" /></clipPath><clipPath id="95"><path clip-rule="evenodd" d="M8.871E-06 841L595.32 841L595.32 841L595.32 -0.9199829L595.32 -0.9199829L8.871E-06 -0.9199829z" /></clipPath><clipPath id="96"><path clip-rule="evenodd" d="M8.871E-06 841L595.32 841L595.32 841L595.32 -0.9199829L595.32 -0.9199829L8.871E-06 -0.9199829z" /></clipPath><clipPath id="97"><path clip-rule="evenodd" d="M8.871E-06 841L595.32 841L595.32 841L595.32 -0.9199829L595.32 -0.9199829L8.871E-06 -0.9199829z" /></clipPath><clipPath id="98"><path clip-rule="evenodd" d="M8.871E-06 841L595.32 841L595.32 841L595.32 -0.9199829L595.32 -0.9199829L8.871E-06 -0.9199829z" /></clipPath><clipPath id="99"><path clip-rule="evenodd" d="M8.871E-06 841L595.32 841L595.32 841L595.32 -0.9199829L595.32 -0.9199829L8.871E-06 -0.9199829z" /></clipPath><clipPath id="100"><path clip-rule="evenodd" d="M8.871E-06 841L595.32 841L595.32 841L595.32 -0.9199829L595.32 -0.9199829L8.871E-06 -0.9199829z" /></clipPath><clipPath id="101"><path clip-rule="evenodd" d="M8.871E-06 841L595.32 841L595.32 841L595.32 -0.9199829L595.32 -0.9199829L8.871E-06 -0.9199829z" /></clipPath><clipPath id="102"><path clip-rule="evenodd" d="M8.871E-06 841L595.32 841L595.32 841L595.32 -0.9199829L595.32 -0.9199829L8.871E-06 -0.9199829z" /></clipPath><clipPath id="103"><path clip-rule="evenodd" d="M8.871E-06 841L595.32 841L595.32 841L595.32 -0.9199829L595.32 -0.9199829L8.871E-06 -0.9199829z" /></clipPath><clipPath id="104"><path clip-rule="evenodd" d="M8.871E-06 841L595.32 841L595.32 841L595.32 -0.9199829L595.32 -0.9199829L8.871E-06 -0.9199829z" /></clipPath><clipPath id="105"><path clip-rule="evenodd" d="M8.871E-06 841L595.32 841L595.32 841L595.32 -0.9199829L595.32 -0.9199829L8.871E-06 -0.9199829z" /></clipPath><clipPath id="106"><path clip-rule="evenodd" d="M8.871E-06 841L595.32 841L595.32 841L595.32 -0.9199829L595.32 -0.9199829L8.871E-06 -0.9199829z" /></clipPath><clipPath id="107"><path clip-rule="evenodd" d="M8.871E-06 841L595.32 841L595.32 841L595.32 -0.9199829L595.32 -0.9199829L8.871E-06 -0.9199829z" /></clipPath><clipPath id="108"><path clip-rule="evenodd" d="M8.871E-06 841L595.32 841L595.32 841L595.32 -0.9199829L595.32 -0.9199829L8.871E-06 -0.9199829z" /></clipPath><clipPath id="109"><path clip-rule="evenodd" d="M8.871E-06 841L595.32 841L595.32 841L595.32 -0.9199829L595.32 -0.9199829L8.871E-06 -0.9199829z" /></clipPath><clipPath id="110"><path clip-rule="evenodd" d="M8.871E-06 841L595.32 841L595.32 841L595.32 -0.9199829L595.32 -0.9199829L8.871E-06 -0.9199829z" /></clipPath><clipPath id="111"><path clip-rule="evenodd" d="M8.871E-06 841L595.32 841L595.32 841L595.32 -0.9199829L595.32 -0.9199829L8.871E-06 -0.9199829z" /></clipPath><clipPath id="112"><path clip-rule="evenodd" d="M8.871E-06 841L595.32 841L595.32 841L595.32 -0.9199829L595.32 -0.9199829L8.871E-06 -0.9199829z" /></clipPath><clipPath id="113"><path clip-rule="evenodd" d="M8.871E-06 841L595.32 841L595.32 841L595.32 -0.9199829L595.32 -0.9199829L8.871E-06 -0.9199829z" /></clipPath><clipPath id="114"><path clip-rule="evenodd" d="M8.871E-06 841L595.32 841L595.32 841L595.32 -0.9199829L595.32 -0.9199829L8.871E-06 -0.9199829z" /></clipPath><clipPath id="115"><path clip-rule="evenodd" d="M8.871E-06 841L595.32 841L595.32 841L595.32 -0.9199829L595.32 -0.9199829L8.871E-06 -0.9199829z" /></clipPath><clipPath id="116"><path clip-rule="evenodd" d="M0 840.9999L595.32 840.9999L595.32 840.9999L595.32 -0.9200439L595.32 -0.9200439L0 -0.9200439z" /></clipPath><clipPath id="117"><path clip-rule="evenodd" d="M8.871E-06 841L595.32 841L595.32 841L595.32 -0.9199829L595.32 -0.9199829L8.871E-06 -0.9199829z" /></clipPath><clipPath id="118"><path clip-rule="evenodd" d="M8.871E-06 841L595.32 841L595.32 841L595.32 -0.9199829L595.32 -0.9199829L8.871E-06 -0.9199829z" /></clipPath><clipPath id="119"><path clip-rule="evenodd" d="M8.871E-06 841L595.32 841L595.32 841L595.32 -0.9199829L595.32 -0.9199829L8.871E-06 -0.9199829z" /></clipPath><clipPath id="120"><path clip-rule="evenodd" d="M8.871E-06 841L595.32 841L595.32 841L595.32 -0.9199829L595.32 -0.9199829L8.871E-06 -0.9199829z" /></clipPath><clipPath id="121"><path clip-rule="evenodd" d="M8.871E-06 841L595.32 841L595.32 841L595.32 -0.9199829L595.32 -0.9199829L8.871E-06 -0.9199829z" /></clipPath><clipPath id="122"><path clip-rule="evenodd" d="M8.871E-06 841L595.32 841L595.32 841L595.32 -0.9199829L595.32 -0.9199829L8.871E-06 -0.9199829z" /></clipPath><clipPath id="123"><path clip-rule="evenodd" d="M8.871E-06 841L595.32 841L595.32 841L595.32 -0.9199829L595.32 -0.9199829L8.871E-06 -0.9199829z" /></clipPath><clipPath id="124"><path clip-rule="evenodd" d="M8.871E-06 841L595.32 841L595.32 841L595.32 -0.9199829L595.32 -0.9199829L8.871E-06 -0.9199829z" /></clipPath><clipPath id="125"><path clip-rule="evenodd" d="M8.871E-06 841L595.32 841L595.32 841L595.32 -0.9199829L595.32 -0.9199829L8.871E-06 -0.9199829z" /></clipPath><clipPath id="126"><path clip-rule="evenodd" d="M8.871E-06 841L595.32 841L595.32 841L595.32 -0.9199829L595.32 -0.9199829L8.871E-06 -0.9199829z" /></clipPath><clipPath id="127"><path clip-rule="evenodd" d="M8.871E-06 841L595.32 841L595.32 841L595.32 -0.9199829L595.32 -0.9199829L8.871E-06 -0.9199829z" /></clipPath><clipPath id="128"><path clip-rule="evenodd" d="M8.871E-06 841L595.32 841L595.32 841L595.32 -0.9199829L595.32 -0.9199829L8.871E-06 -0.9199829z" /></clipPath><clipPath id="129"><path clip-rule="evenodd" d="M8.871E-06 841L595.32 841L595.32 841L595.32 -0.9199829L595.32 -0.9199829L8.871E-06 -0.9199829z" /></clipPath><clipPath id="130"><path clip-rule="evenodd" d="M8.871E-06 841L595.32 841L595.32 841L595.32 -0.9199829L595.32 -0.9199829L8.871E-06 -0.9199829z" /></clipPath><clipPath id="131"><path clip-rule="evenodd" d="M8.871E-06 841L595.32 841L595.32 841L595.32 -0.9199829L595.32 -0.9199829L8.871E-06 -0.9199829z" /></clipPath><clipPath id="132"><path clip-rule="evenodd" d="M8.871E-06 841L595.32 841L595.32 841L595.32 -0.9199829L595.32 -0.9199829L8.871E-06 -0.9199829z" /></clipPath><clipPath id="133"><path clip-rule="evenodd" d="M8.871E-06 841L595.32 841L595.32 841L595.32 -0.9199829L595.32 -0.9199829L8.871E-06 -0.9199829z" /></clipPath><clipPath id="134"><path clip-rule="evenodd" d="M8.871E-06 841L595.32 841L595.32 841L595.32 -0.9199829L595.32 -0.9199829L8.871E-06 -0.9199829z" /></clipPath><clipPath id="135"><path clip-rule="evenodd" d="M8.871E-06 841L595.32 841L595.32 841L595.32 -0.9199829L595.32 -0.9199829L8.871E-06 -0.9199829z" /></clipPath><clipPath id="136"><path clip-rule="evenodd" d="M8.871E-06 841L595.32 841L595.32 841L595.32 -0.9199829L595.32 -0.9199829L8.871E-06 -0.9199829z" /></clipPath><clipPath id="137"><path clip-rule="evenodd" d="M8.871E-06 841L595.32 841L595.32 841L595.32 -0.9199829L595.32 -0.9199829L8.871E-06 -0.9199829z" /></clipPath><clipPath id="138"><path clip-rule="evenodd" d="M8.871E-06 841L595.32 841L595.32 841L595.32 -0.9199829L595.32 -0.9199829L8.871E-06 -0.9199829z" /></clipPath><clipPath id="139"><path clip-rule="evenodd" d="M8.871E-06 841L595.32 841L595.32 841L595.32 -0.9199829L595.32 -0.9199829L8.871E-06 -0.9199829z" /></clipPath><clipPath id="140"><path clip-rule="evenodd" d="M8.871E-06 841L595.32 841L595.32 841L595.32 -0.9199829L595.32 -0.9199829L8.871E-06 -0.9199829z" /></clipPath><clipPath id="141"><path clip-rule="evenodd" d="M8.871E-06 841L595.32 841L595.32 841L595.32 -0.9199829L595.32 -0.9199829L8.871E-06 -0.9199829z" /></clipPath><clipPath id="142"><path clip-rule="evenodd" d="M8.871E-06 841L595.32 841L595.32 841L595.32 -0.9199829L595.32 -0.9199829L8.871E-06 -0.9199829z" /></clipPath><clipPath id="143"><path clip-rule="evenodd" d="M8.871E-06 841L595.32 841L595.32 841L595.32 -0.9199829L595.32 -0.9199829L8.871E-06 -0.9199829z" /></clipPath><clipPath id="144"><path clip-rule="evenodd" d="M8.871E-06 841L595.32 841L595.32 841L595.32 -0.9199829L595.32 -0.9199829L8.871E-06 -0.9199829z" /></clipPath><clipPath id="145"><path clip-rule="evenodd" d="M8.871E-06 841L595.32 841L595.32 841L595.32 -0.9199829L595.32 -0.9199829L8.871E-06 -0.9199829z" /></clipPath><clipPath id="146"><path clip-rule="evenodd" d="M8.871E-06 841L595.32 841L595.32 841L595.32 -0.9199829L595.32 -0.9199829L8.871E-06 -0.9199829z" /></clipPath><clipPath id="147"><path clip-rule="evenodd" d="M8.871E-06 841L595.32 841L595.32 841L595.32 -0.9199829L595.32 -0.9199829L8.871E-06 -0.9199829z" /></clipPath><clipPath id="148"><path clip-rule="evenodd" d="M8.871E-06 841L595.32 841L595.32 841L595.32 -0.9199829L595.32 -0.9199829L8.871E-06 -0.9199829z" /></clipPath><clipPath id="149"><path clip-rule="evenodd" d="M8.871E-06 841L595.32 841L595.32 841L595.32 -0.9199829L595.32 -0.9199829L8.871E-06 -0.9199829z" /></clipPath><clipPath id="150"><path clip-rule="evenodd" d="M8.871E-06 841L595.32 841L595.32 841L595.32 -0.9199829L595.32 -0.9199829L8.871E-06 -0.9199829z" /></clipPath><clipPath id="151"><path clip-rule="evenodd" d="M8.871E-06 841L595.32 841L595.32 841L595.32 -0.9199829L595.32 -0.9199829L8.871E-06 -0.9199829z" /></clipPath><clipPath id="152"><path clip-rule="evenodd" d="M8.871E-06 841L595.32 841L595.32 841L595.32 -0.9199829L595.32 -0.9199829L8.871E-06 -0.9199829z" /></clipPath><clipPath id="153"><path clip-rule="evenodd" d="M8.871E-06 841L595.32 841L595.32 841L595.32 -0.9199829L595.32 -0.9199829L8.871E-06 -0.9199829z" /></clipPath><clipPath id="154"><path clip-rule="evenodd" d="M8.871E-06 841L595.32 841L595.32 841L595.32 -0.9199829L595.32 -0.9199829L8.871E-06 -0.9199829z" /></clipPath><clipPath id="155"><path clip-rule="evenodd" d="M8.871E-06 841L595.32 841L595.32 841L595.32 -0.9199829L595.32 -0.9199829L8.871E-06 -0.9199829z" /></clipPath><clipPath id="156"><path clip-rule="evenodd" d="M8.871E-06 841L595.32 841L595.32 841L595.32 -0.9199829L595.32 -0.9199829L8.871E-06 -0.9199829z" /></clipPath><clipPath id="157"><path clip-rule="evenodd" d="M8.871E-06 841L595.32 841L595.32 841L595.32 -0.9199829L595.32 -0.9199829L8.871E-06 -0.9199829z" /></clipPath><clipPath id="158"><path clip-rule="evenodd" d="M8.871E-06 841L595.32 841L595.32 841L595.32 -0.9199829L595.32 -0.9199829L8.871E-06 -0.9199829z" /></clipPath><clipPath id="159"><path clip-rule="evenodd" d="M8.871E-06 841L595.32 841L595.32 841L595.32 -0.9199829L595.32 -0.9199829L8.871E-06 -0.9199829z" /></clipPath><clipPath id="160"><path clip-rule="evenodd" d="M8.871E-06 841L595.32 841L595.32 841L595.32 -0.9199829L595.32 -0.9199829L8.871E-06 -0.9199829z" /></clipPath><clipPath id="161"><path clip-rule="evenodd" d="M8.871E-06 841L595.32 841L595.32 841L595.32 -0.9199829L595.32 -0.9199829L8.871E-06 -0.9199829z" /></clipPath><clipPath id="162"><path clip-rule="evenodd" d="M8.871E-06 841L595.32 841L595.32 841L595.32 -0.9199829L595.32 -0.9199829L8.871E-06 -0.9199829z" /></clipPath><clipPath id="163"><path clip-rule="evenodd" d="M8.871E-06 841L595.32 841L595.32 841L595.32 -0.9199829L595.32 -0.9199829L8.871E-06 -0.9199829z" /></clipPath><clipPath id="164"><path clip-rule="evenodd" d="M8.871E-06 841L595.32 841L595.32 841L595.32 -0.9199829L595.32 -0.9199829L8.871E-06 -0.9199829z" /></clipPath><clipPath id="165"><path clip-rule="evenodd" d="M8.871E-06 841L595.32 841L595.32 841L595.32 -0.9199829L595.32 -0.9199829L8.871E-06 -0.9199829z" /></clipPath><clipPath id="166"><path clip-rule="evenodd" d="M8.871E-06 841L595.32 841L595.32 841L595.32 -0.9199829L595.32 -0.9199829L8.871E-06 -0.9199829z" /></clipPath><clipPath id="167"><path clip-rule="evenodd" d="M8.871E-06 841L595.32 841L595.32 841L595.32 -0.9199829L595.32 -0.9199829L8.871E-06 -0.9199829z" /></clipPath><clipPath id="168"><path clip-rule="evenodd" d="M8.871E-06 841L595.32 841L595.32 841L595.32 -0.9199829L595.32 -0.9199829L8.871E-06 -0.9199829z" /></clipPath><clipPath id="169"><path clip-rule="evenodd" d="M8.871E-06 841L595.32 841L595.32 841L595.32 -0.9199829L595.32 -0.9199829L8.871E-06 -0.9199829z" /></clipPath><clipPath id="170"><path clip-rule="evenodd" d="M8.871E-06 841L595.32 841L595.32 841L595.32 -0.9199829L595.32 -0.9199829L8.871E-06 -0.9199829z" /></clipPath><clipPath id="171"><path clip-rule="evenodd" d="M8.871E-06 841L595.32 841L595.32 841L595.32 -0.9199829L595.32 -0.9199829L8.871E-06 -0.9199829z" /></clipPath><clipPath id="172"><path clip-rule="evenodd" d="M8.871E-06 841L595.32 841L595.32 841L595.32 -0.9199829L595.32 -0.9199829L8.871E-06 -0.9199829z" /></clipPath><clipPath id="173"><path clip-rule="evenodd" d="M8.871E-06 841L595.32 841L595.32 841L595.32 -0.9199829L595.32 -0.9199829L8.871E-06 -0.9199829z" /></clipPath><clipPath id="174"><path clip-rule="evenodd" d="M8.871E-06 841L595.32 841L595.32 841L595.32 -0.9199829L595.32 -0.9199829L8.871E-06 -0.9199829z" /></clipPath><clipPath id="175"><path clip-rule="evenodd" d="M8.871E-06 841L595.32 841L595.32 841L595.32 -0.9199829L595.32 -0.9199829L8.871E-06 -0.9199829z" /></clipPath><clipPath id="176"><path clip-rule="evenodd" d="M8.871E-06 841L595.32 841L595.32 841L595.32 -0.9199829L595.32 -0.9199829L8.871E-06 -0.9199829z" /></clipPath><clipPath id="177"><path clip-rule="evenodd" d="M8.871E-06 841L595.32 841L595.32 841L595.32 -0.9199829L595.32 -0.9199829L8.871E-06 -0.9199829z" /></clipPath><clipPath id="178"><path clip-rule="evenodd" d="M8.871E-06 841L595.32 841L595.32 841L595.32 -0.9199829L595.32 -0.9199829L8.871E-06 -0.9199829z" /></clipPath><clipPath id="179"><path clip-rule="evenodd" d="M8.871E-06 841L595.32 841L595.32 841L595.32 -0.9199829L595.32 -0.9199829L8.871E-06 -0.9199829z" /></clipPath><clipPath id="180"><path clip-rule="evenodd" d="M8.871E-06 841L595.32 841L595.32 841L595.32 -0.9199829L595.32 -0.9199829L8.871E-06 -0.9199829z" /></clipPath><clipPath id="181"><path clip-rule="evenodd" d="M8.871E-06 841L595.32 841L595.32 841L595.32 -0.9199829L595.32 -0.9199829L8.871E-06 -0.9199829z" /></clipPath><clipPath id="182"><path clip-rule="evenodd" d="M8.871E-06 841L595.32 841L595.32 841L595.32 -0.9199829L595.32 -0.9199829L8.871E-06 -0.9199829z" /></clipPath><clipPath id="183"><path clip-rule="evenodd" d="M8.871E-06 841L595.32 841L595.32 841L595.32 -0.9199829L595.32 -0.9199829L8.871E-06 -0.9199829z" /></clipPath><clipPath id="184"><path clip-rule="evenodd" d="M8.871E-06 841L595.32 841L595.32 841L595.32 -0.9199829L595.32 -0.9199829L8.871E-06 -0.9199829z" /></clipPath><clipPath id="185"><path clip-rule="evenodd" d="M8.871E-06 841L595.32 841L595.32 841L595.32 -0.9199829L595.32 -0.9199829L8.871E-06 -0.9199829z" /></clipPath><clipPath id="186"><path clip-rule="evenodd" d="M8.871E-06 841L595.32 841L595.32 841L595.32 -0.9199829L595.32 -0.9199829L8.871E-06 -0.9199829z" /></clipPath><clipPath id="187"><path clip-rule="evenodd" d="M8.871E-06 841L595.32 841L595.32 841L595.32 -0.9199829L595.32 -0.9199829L8.871E-06 -0.9199829z" /></clipPath><clipPath id="188"><path clip-rule="evenodd" d="M8.871E-06 841L595.32 841L595.32 841L595.32 -0.9199829L595.32 -0.9199829L8.871E-06 -0.9199829z" /></clipPath><clipPath id="189"><path clip-rule="evenodd" d="M8.871E-06 841L595.32 841L595.32 841L595.32 -0.9199829L595.32 -0.9199829L8.871E-06 -0.9199829z" /></clipPath><clipPath id="190"><path clip-rule="evenodd" d="M8.871E-06 841L595.32 841L595.32 841L595.32 -0.9199829L595.32 -0.9199829L8.871E-06 -0.9199829z" /></clipPath><clipPath id="191"><path clip-rule="evenodd" d="M0 840.9999L595.32 840.9999L595.32 840.9999L595.32 -0.9200439L595.32 -0.9200439L0 -0.9200439z" /></clipPath><clipPath id="192"><path clip-rule="evenodd" d="M8.871E-06 841L595.32 841L595.32 841L595.32 -0.9199829L595.32 -0.9199829L8.871E-06 -0.9199829z" /></clipPath><clipPath id="193"><path clip-rule="evenodd" d="M8.871E-06 841L595.32 841L595.32 841L595.32 -0.9199829L595.32 -0.9199829L8.871E-06 -0.9199829z" /></clipPath><clipPath id="194"><path clip-rule="evenodd" d="M8.871E-06 841L595.32 841L595.32 841L595.32 -0.9199829L595.32 -0.9199829L8.871E-06 -0.9199829z" /></clipPath><clipPath id="195"><path clip-rule="evenodd" d="M8.871E-06 841L595.32 841L595.32 841L595.32 -0.9199829L595.32 -0.9199829L8.871E-06 -0.9199829z" /></clipPath><clipPath id="196"><path clip-rule="evenodd" d="M8.871E-06 841L595.32 841L595.32 841L595.32 -0.9199829L595.32 -0.9199829L8.871E-06 -0.9199829z" /></clipPath><clipPath id="197"><path clip-rule="evenodd" d="M8.871E-06 841L595.32 841L595.32 841L595.32 -0.9199829L595.32 -0.9199829L8.871E-06 -0.9199829z" /></clipPath><clipPath id="198"><path clip-rule="evenodd" d="M8.871E-06 841L595.32 841L595.32 841L595.32 -0.9199829L595.32 -0.9199829L8.871E-06 -0.9199829z" /></clipPath><clipPath id="199"><path clip-rule="evenodd" d="M8.871E-06 841L595.32 841L595.32 841L595.32 -0.9199829L595.32 -0.9199829L8.871E-06 -0.9199829z" /></clipPath><clipPath id="200"><path clip-rule="evenodd" d="M8.871E-06 841L595.32 841L595.32 841L595.32 -0.9199829L595.32 -0.9199829L8.871E-06 -0.9199829z" /></clipPath><clipPath id="201"><path clip-rule="evenodd" d="M0 840.9999L595.32 840.9999L595.32 840.9999L595.32 -0.9200439L595.32 -0.9200439L0 -0.9200439z" /></clipPath><clipPath id="202"><path clip-rule="evenodd" d="M8.871E-06 841L595.32 841L595.32 841L595.32 -0.9199829L595.32 -0.9199829L8.871E-06 -0.9199829z" /></clipPath><clipPath id="203"><path clip-rule="evenodd" d="M8.871E-06 841L595.32 841L595.32 841L595.32 -0.9199829L595.32 -0.9199829L8.871E-06 -0.9199829z" /></clipPath><clipPath id="204"><path clip-rule="evenodd" d="M8.871E-06 841L595.32 841L595.32 841L595.32 -0.9199829L595.32 -0.9199829L8.871E-06 -0.9199829z" /></clipPath><clipPath id="205"><path clip-rule="evenodd" d="M8.871E-06 841L595.32 841L595.32 841L595.32 -0.9199829L595.32 -0.9199829L8.871E-06 -0.9199829z" /></clipPath><clipPath id="206"><path clip-rule="evenodd" d="M8.871E-06 841L595.32 841L595.32 841L595.32 -0.9199829L595.32 -0.9199829L8.871E-06 -0.9199829z" /></clipPath><clipPath id="207"><path clip-rule="evenodd" d="M8.871E-06 841L595.32 841L595.32 841L595.32 -0.9199829L595.32 -0.9199829L8.871E-06 -0.9199829z" /></clipPath><clipPath id="208"><path clip-rule="evenodd" d="M8.871E-06 841L595.32 841L595.32 841L595.32 -0.9199829L595.32 -0.9199829L8.871E-06 -0.9199829z" /></clipPath><clipPath id="209"><path clip-rule="evenodd" d="M8.871E-06 841L595.32 841L595.32 841L595.32 -0.9199829L595.32 -0.9199829L8.871E-06 -0.9199829z" /></clipPath><clipPath id="210"><path clip-rule="evenodd" d="M0 840.9999L595.32 840.9999L595.32 840.9999L595.32 -0.9200439L595.32 -0.9200439L0 -0.9200439z" /></clipPath><clipPath id="211"><path clip-rule="evenodd" d="M8.871E-06 841L595.32 841L595.32 841L595.32 -0.9199829L595.32 -0.9199829L8.871E-06 -0.9199829z" /></clipPath><clipPath id="212"><path clip-rule="evenodd" d="M8.871E-06 841L595.32 841L595.32 841L595.32 -0.9199829L595.32 -0.9199829L8.871E-06 -0.9199829z" /></clipPath><clipPath id="213"><path clip-rule="evenodd" d="M8.871E-06 841L595.32 841L595.32 841L595.32 -0.9199829L595.32 -0.9199829L8.871E-06 -0.9199829z" /></clipPath><clipPath id="214"><path clip-rule="evenodd" d="M8.871E-06 841L595.32 841L595.32 841L595.32 -0.9199829L595.32 -0.9199829L8.871E-06 -0.9199829z" /></clipPath><clipPath id="215"><path clip-rule="evenodd" d="M8.871E-06 841L595.32 841L595.32 841L595.32 -0.9199829L595.32 -0.9199829L8.871E-06 -0.9199829z" /></clipPath><clipPath id="216"><path clip-rule="evenodd" d="M8.871E-06 841L595.32 841L595.32 841L595.32 -0.9199829L595.32 -0.9199829L8.871E-06 -0.9199829z" /></clipPath><clipPath id="217"><path clip-rule="evenodd" d="M8.871E-06 841L595.32 841L595.32 841L595.32 -0.9199829L595.32 -0.9199829L8.871E-06 -0.9199829z" /></clipPath><clipPath id="218"><path clip-rule="evenodd" d="M8.871E-06 841L595.32 841L595.32 841L595.32 -0.9199829L595.32 -0.9199829L8.871E-06 -0.9199829z" /></clipPath><clipPath id="219"><path clip-rule="evenodd" d="M8.871E-06 841L595.32 841L595.32 841L595.32 -0.9199829L595.32 -0.9199829L8.871E-06 -0.9199829z" /></clipPath><clipPath id="220"><path clip-rule="evenodd" d="M8.871E-06 841L595.32 841L595.32 841L595.32 -0.9199829L595.32 -0.9199829L8.871E-06 -0.9199829z" /></clipPath><clipPath id="221"><path clip-rule="evenodd" d="M8.871E-06 841L595.32 841L595.32 841L595.32 -0.9199829L595.32 -0.9199829L8.871E-06 -0.9199829z" /></clipPath><clipPath id="222"><path clip-rule="evenodd" d="M8.871E-06 841L595.32 841L595.32 841L595.32 -0.9199829L595.32 -0.9199829L8.871E-06 -0.9199829z" /></clipPath><clipPath id="223"><path clip-rule="evenodd" d="M8.871E-06 841L595.32 841L595.32 841L595.32 -0.9199829L595.32 -0.9199829L8.871E-06 -0.9199829z" /></clipPath><clipPath id="224"><path clip-rule="evenodd" d="M8.871E-06 841L595.32 841L595.32 841L595.32 -0.9199829L595.32 -0.9199829L8.871E-06 -0.9199829z" /></clipPath><clipPath id="225"><path clip-rule="evenodd" d="M8.871E-06 841L595.32 841L595.32 841L595.32 -0.9199829L595.32 -0.9199829L8.871E-06 -0.9199829z" /></clipPath><clipPath id="226"><path clip-rule="evenodd" d="M8.871E-06 841L595.32 841L595.32 841L595.32 -0.9199829L595.32 -0.9199829L8.871E-06 -0.9199829z" /></clipPath><clipPath id="227"><path clip-rule="evenodd" d="M8.871E-06 841L595.32 841L595.32 841L595.32 -0.9199829L595.32 -0.9199829L8.871E-06 -0.9199829z" /></clipPath><clipPath id="228"><path clip-rule="evenodd" d="M8.871E-06 841L595.32 841L595.32 841L595.32 -0.9199829L595.32 -0.9199829L8.871E-06 -0.9199829z" /></clipPath><clipPath id="229"><path clip-rule="evenodd" d="M8.871E-06 841L595.32 841L595.32 841L595.32 -0.9199829L595.32 -0.9199829L8.871E-06 -0.9199829z" /></clipPath><clipPath id="230"><path clip-rule="evenodd" d="M8.871E-06 841L595.32 841L595.32 841L595.32 -0.9199829L595.32 -0.9199829L8.871E-06 -0.9199829z" /></clipPath><clipPath id="231"><path clip-rule="evenodd" d="M8.871E-06 841L595.32 841L595.32 841L595.32 -0.9199829L595.32 -0.9199829L8.871E-06 -0.9199829z" /></clipPath><clipPath id="232"><path clip-rule="evenodd" d="M8.871E-06 841L595.32 841L595.32 841L595.32 -0.9199829L595.32 -0.9199829L8.871E-06 -0.9199829z" /></clipPath><clipPath id="233"><path clip-rule="evenodd" d="M8.871E-06 841L595.32 841L595.32 841L595.32 -0.9199829L595.32 -0.9199829L8.871E-06 -0.9199829z" /></clipPath><clipPath id="234"><path clip-rule="evenodd" d="M8.871E-06 841L595.32 841L595.32 841L595.32 -0.9199829L595.32 -0.9199829L8.871E-06 -0.9199829z" /></clipPath><clipPath id="235"><path clip-rule="evenodd" d="M8.871E-06 841L595.32 841L595.32 841L595.32 -0.9199829L595.32 -0.9199829L8.871E-06 -0.9199829z" /></clipPath><clipPath id="236"><path clip-rule="evenodd" d="M8.871E-06 841L595.32 841L595.32 841L595.32 -0.9199829L595.32 -0.9199829L8.871E-06 -0.9199829z" /></clipPath><clipPath id="237"><path clip-rule="evenodd" d="M8.871E-06 841L595.32 841L595.32 841L595.32 -0.9199829L595.32 -0.9199829L8.871E-06 -0.9199829z" /></clipPath><clipPath id="238"><path clip-rule="evenodd" d="M8.871E-06 841L595.32 841L595.32 841L595.32 -0.9199829L595.32 -0.9199829L8.871E-06 -0.9199829z" /></clipPath><clipPath id="239"><path clip-rule="evenodd" d="M8.871E-06 841L595.32 841L595.32 841L595.32 -0.9199829L595.32 -0.9199829L8.871E-06 -0.9199829z" /></clipPath><clipPath id="240"><path clip-rule="evenodd" d="M8.871E-06 841L595.32 841L595.32 841L595.32 -0.9199829L595.32 -0.9199829L8.871E-06 -0.9199829z" /></clipPath><clipPath id="241"><path clip-rule="evenodd" d="M8.871E-06 841L595.32 841L595.32 841L595.32 -0.9199829L595.32 -0.9199829L8.871E-06 -0.9199829z" /></clipPath><clipPath id="242"><path clip-rule="evenodd" d="M0 840.9999L595.32 840.9999L595.32 840.9999L595.32 -0.9200439L595.32 -0.9200439L0 -0.9200439z" /></clipPath><clipPath id="243"><path clip-rule="evenodd" d="M8.871E-06 841L595.32 841L595.32 841L595.32 -0.9199829L595.32 -0.9199829L8.871E-06 -0.9199829z" /></clipPath><clipPath id="244"><path clip-rule="evenodd" d="M8.871E-06 841L595.32 841L595.32 841L595.32 -0.9199829L595.32 -0.9199829L8.871E-06 -0.9199829z" /></clipPath><clipPath id="245"><path clip-rule="evenodd" d="M8.871E-06 841L595.32 841L595.32 841L595.32 -0.9199829L595.32 -0.9199829L8.871E-06 -0.9199829z" /></clipPath><clipPath id="246"><path clip-rule="evenodd" d="M8.871E-06 841L595.32 841L595.32 841L595.32 -0.9199829L595.32 -0.9199829L8.871E-06 -0.9199829z" /></clipPath><clipPath id="247"><path clip-rule="evenodd" d="M8.871E-06 841L595.32 841L595.32 841L595.32 -0.9199829L595.32 -0.9199829L8.871E-06 -0.9199829z" /></clipPath><clipPath id="248"><path clip-rule="evenodd" d="M8.871E-06 841L595.32 841L595.32 841L595.32 -0.9199829L595.32 -0.9199829L8.871E-06 -0.9199829z" /></clipPath><clipPath id="249"><path clip-rule="evenodd" d="M8.871E-06 841L595.32 841L595.32 841L595.32 -0.9199829L595.32 -0.9199829L8.871E-06 -0.9199829z" /></clipPath><clipPath id="250"><path clip-rule="evenodd" d="M8.871E-06 841L595.32 841L595.32 841L595.32 -0.9199829L595.32 -0.9199829L8.871E-06 -0.9199829z" /></clipPath><clipPath id="251"><path clip-rule="evenodd" d="M8.871E-06 841L595.32 841L595.32 841L595.32 -0.9199829L595.32 -0.9199829L8.871E-06 -0.9199829z" /></clipPath><clipPath id="252"><path clip-rule="evenodd" d="M8.871E-06 841L595.32 841L595.32 841L595.32 -0.9199829L595.32 -0.9199829L8.871E-06 -0.9199829z" /></clipPath><clipPath id="253"><path clip-rule="evenodd" d="M8.871E-06 841L595.32 841L595.32 841L595.32 -0.9199829L595.32 -0.9199829L8.871E-06 -0.9199829z" /></clipPath></defs><g transform="matrix(1.333333 0 0 1.333333 0 0)"><g clip-path="url(#1)"><g clip-path="url(#2)"></g><g clip-path="url(#3)"></g><g clip-path="url(#4)"></g><g clip-path="url(#5)"></g><g clip-path="url(#6)"></g><g clip-path="url(#7)"></g><g clip-path="url(#8)"></g><g clip-path="url(#9)"></g><g clip-path="url(#10)"></g><g clip-path="url(#11)"></g><g clip-path="url(#12)"></g><g clip-path="url(#13)"></g><g clip-path="url(#14)"></g><g clip-path="url(#15)"></g><g clip-path="url(#16)"></g><g clip-path="url(#17)"></g><g clip-path="url(#18)"></g><g clip-path="url(#19)"></g><g clip-path="url(#20)"></g><g clip-path="url(#21)"></g><g clip-path="url(#22)"></g><g clip-path="url(#23)"></g><g clip-path="url(#24)"><path transform="matrix(1 0 0 -1 0 841)" d="M55.2 784.32L545.74 784.32L545.74 784.32L545.74 785.04L545.74 785.04L55.2 785.04z" stroke="none" fill="#000000" fill-rule="evenodd" /></g><g clip-path="url(#25)"></g><g clip-path="url(#26)"></g><g clip-path="url(#27)"></g><g clip-path="url(#28)"><g clip-path="url(#29)"></g></g><g clip-path="url(#30)"></g><g clip-path="url(#31)"></g><g clip-path="url(#32)"></g><g clip-path="url(#33)"></g><g clip-path="url(#34)"></g><g clip-path="url(#35)"></g><g clip-path="url(#36)"></g><g clip-path="url(#37)"></g><g clip-path="url(#38)"></g><g clip-path="url(#39)"><g clip-path="url(#40)"></g></g><g clip-path="url(#41)"></g><g clip-path="url(#42)"></g><g clip-path="url(#43)"></g><g clip-path="url(#44)"></g><g clip-path="url(#45)"></g><g clip-path="url(#46)"></g><g clip-path="url(#47)"></g><g clip-path="url(#48)"></g><g clip-path="url(#49)"></g><g clip-path="url(#50)"></g><g clip-path="url(#51)"></g><g clip-path="url(#52)"></g><g clip-path="url(#53)"></g><g clip-path="url(#54)"></g><g clip-path="url(#55)"></g><g clip-path="url(#56)"></g><g clip-path="url(#57)"></g><g clip-path="url(#58)"></g><g clip-path="url(#59)"></g><g clip-path="url(#60)"></g><g clip-path="url(#61)"></g><g clip-path="url(#62)"></g><g clip-path="url(#63)"></g><g clip-path="url(#64)"></g><g clip-path="url(#65)"></g><g clip-path="url(#66)"></g><g clip-path="url(#67)"></g><g clip-path="url(#68)"></g><g clip-path="url(#69)"></g><g clip-path="url(#70)"></g><g clip-path="url(#71)"></g><g clip-path="url(#72)"></g><g clip-path="url(#73)"></g><g clip-path="url(#74)"></g><g clip-path="url(#75)"></g><g clip-path="url(#76)"></g><g clip-path="url(#77)"></g><g clip-path="url(#78)"></g><g clip-path="url(#79)"></g><g clip-path="url(#80)"></g><g clip-path="url(#81)"></g><g clip-path="url(#82)"></g><g clip-path="url(#83)"></g><g clip-path="url(#84)"></g><g clip-path="url(#85)"></g><g clip-path="url(#86)"></g><g clip-path="url(#87)"></g><g clip-path="url(#88)"></g><g clip-path="url(#89)"></g><g clip-path="url(#90)"></g><g clip-path="url(#91)"></g><g clip-path="url(#92)"></g><g clip-path="url(#93)"></g><g clip-path="url(#94)"></g><g clip-path="url(#95)"></g><g clip-path="url(#96)"></g><g clip-path="url(#97)"></g><g clip-path="url(#98)"></g><g clip-path="url(#99)"></g><g clip-path="url(#100)"></g><g clip-path="url(#101)"></g><g clip-path="url(#102)"></g><g clip-path="url(#103)"></g><g clip-path="url(#104)"></g><g clip-path="url(#105)"></g><g clip-path="url(#106)"></g><g clip-path="url(#107)"></g><g clip-path="url(#108)"></g><g clip-path="url(#109)"></g><g clip-path="url(#110)"></g><g clip-path="url(#111)"></g><g clip-path="url(#112)"></g><g clip-path="url(#113)"></g><g clip-path="url(#114)"></g><g clip-path="url(#115)"></g><g clip-path="url(#116)"><g transform="matrix(0.2908125 0 0 0.2915833 56.9 354.18)"><g transform="matrix(1 0 0 1 0 0)"><image x="0" y="0" xlink:href="img_10.png" width="800" height="600" /></g></g></g><g clip-path="url(#117)"></g><g clip-path="url(#118)"></g><g clip-path="url(#119)"></g><g clip-path="url(#120)"></g><g clip-path="url(#121)"></g><g clip-path="url(#122)"></g><g clip-path="url(#123)"></g><g clip-path="url(#124)"></g><g clip-path="url(#125)"></g><g clip-path="url(#126)"></g><g clip-path="url(#127)"></g><g clip-path="url(#128)"></g><g clip-path="url(#129)"></g><g clip-path="url(#130)"></g><g clip-path="url(#131)"></g><g clip-path="url(#132)"></g><g clip-path="url(#133)"></g><g clip-path="url(#134)"></g><g clip-path="url(#135)"></g><g clip-path="url(#136)"></g><g clip-path="url(#137)"></g><g clip-path="url(#138)"></g><g clip-path="url(#139)"></g><g clip-path="url(#140)"></g><g clip-path="url(#141)"></g><g clip-path="url(#142)"></g><g clip-path="url(#143)"></g><g clip-path="url(#144)"></g><g clip-path="url(#145)"></g><g clip-path="url(#146)"></g><g clip-path="url(#147)"></g><g clip-path="url(#148)"></g><g clip-path="url(#149)"></g><g clip-path="url(#150)"></g><g clip-path="url(#151)"></g><g clip-path="url(#152)"></g><g clip-path="url(#153)"></g><g clip-path="url(#154)"></g><g clip-path="url(#155)"></g><g clip-path="url(#156)"></g><g clip-path="url(#157)"></g><g clip-path="url(#158)"></g><g clip-path="url(#159)"></g><g clip-path="url(#160)"></g><g clip-path="url(#161)"></g><g clip-path="url(#162)"></g><g clip-path="url(#163)"></g><g clip-path="url(#164)"></g><g clip-path="url(#165)"></g><g clip-path="url(#166)"></g><g clip-path="url(#167)"></g><g clip-path="url(#168)"></g><g clip-path="url(#169)"></g><g clip-path="url(#170)"></g><g clip-path="url(#171)"></g><g clip-path="url(#172)"></g><g clip-path="url(#173)"></g><g clip-path="url(#174)"></g><g clip-path="url(#175)"></g><g clip-path="url(#176)"></g><g clip-path="url(#177)"></g><g clip-path="url(#178)"></g><g clip-path="url(#179)"></g><g clip-path="url(#180)"></g><g clip-path="url(#181)"></g><g clip-path="url(#182)"></g><g clip-path="url(#183)"></g><g clip-path="url(#184)"></g><g clip-path="url(#185)"></g><g clip-path="url(#186)"></g><g clip-path="url(#187)"></g><g clip-path="url(#188)"></g><g clip-path="url(#189)"></g><g clip-path="url(#190)"></g><g clip-path="url(#191)"><g transform="matrix(0.3604021 0 0 0.3604895 324.5 67.13)"><g transform="matrix(1 0 0 1 0 0)"><image x="0" y="0" xlink:href="img_11.png" width="572" height="429" /></g></g></g><g clip-path="url(#192)"></g><g clip-path="url(#193)"></g><g clip-path="url(#194)"></g><g clip-path="url(#195)"></g><g clip-path="url(#196)"></g><g clip-path="url(#197)"></g><g clip-path="url(#198)"></g><g clip-path="url(#199)"></g><g clip-path="url(#200)"></g><g clip-path="url(#201)"><g transform="matrix(0.296 0 0 0.2965833 310.9 241.13)"><g transform="matrix(1 0 0 1 0 0)"><image x="0" y="0" xlink:href="img_12.png" width="800" height="600" /></g></g></g><g clip-path="url(#202)"></g><g clip-path="url(#203)"></g><g clip-path="url(#204)"></g><g clip-path="url(#205)"></g><g clip-path="url(#206)"></g><g clip-path="url(#207)"></g><g clip-path="url(#208)"></g><g clip-path="url(#209)"></g><g clip-path="url(#210)"><g transform="matrix(0.278 0 0 0.27725 316.3 438.38)"><g transform="matrix(1 0 0 1 0 0)"><image x="0" y="0" xlink:href="img_13.png" width="800" height="600" /></g></g></g><g clip-path="url(#211)"></g><g clip-path="url(#212)"></g><g clip-path="url(#213)"></g><g clip-path="url(#214)"></g><g clip-path="url(#215)"></g><g clip-path="url(#216)"></g><g clip-path="url(#217)"></g><g clip-path="url(#218)"></g><g clip-path="url(#219)"></g><g clip-path="url(#220)"></g><g clip-path="url(#221)"></g><g clip-path="url(#222)"></g><g clip-path="url(#223)"></g><g clip-path="url(#224)"></g><g clip-path="url(#225)"></g><g clip-path="url(#226)"></g><g clip-path="url(#227)"></g><g clip-path="url(#228)"></g><g clip-path="url(#229)"></g><g clip-path="url(#230)"></g><g clip-path="url(#231)"></g><g clip-path="url(#232)"></g><g clip-path="url(#233)"></g><g clip-path="url(#234)"></g><g clip-path="url(#235)"></g><g clip-path="url(#236)"></g><g clip-path="url(#237)"></g><g clip-path="url(#238)"></g><g clip-path="url(#239)"></g><g clip-path="url(#240)"></g><g clip-path="url(#241)"></g><g clip-path="url(#242)"><g transform="matrix(0.4119048 0 0 0.4112403 310.9 672.98)"><g transform="matrix(1 0 0 1 0 0)"><image x="0" y="0" xlink:href="img_14.png" width="567" height="129" /></g></g></g><g clip-path="url(#243)"></g><g clip-path="url(#244)"></g><g clip-path="url(#245)"></g><g clip-path="url(#246)"></g><g clip-path="url(#247)"></g><g clip-path="url(#248)"></g><g clip-path="url(#249)"></g><g clip-path="url(#250)"></g><g clip-path="url(#251)"></g><g clip-path="url(#252)"></g><g clip-path="url(#253)"></g></g></g></svg>