<svg xmlns="http://www.w3.org/2000/svg" xmlns:xlink="http://www.w3.org/1999/xlink" id="body_2" preserveAspectRatio="xMinYMin meet" viewBox="0 0 793 1121"><defs><clipPath id="1"><path clip-rule="evenodd" d="M0 841L0 -0.9199829L0 -0.9199829L595.32 -0.9199829L595.32 -0.9199829L595.32 841L595.32 841L0 841z" /></clipPath><clipPath id="2"><path clip-rule="evenodd" d="M8.871E-06 841L595.32 841L595.32 841L595.32 -0.9199829L595.32 -0.9199829L8.871E-06 -0.9199829z" /></clipPath><clipPath id="3"><path clip-rule="evenodd" d="M8.871E-06 841L595.32 841L595.32 841L595.32 -0.9199829L595.32 -0.9199829L8.871E-06 -0.9199829z" /></clipPath><clipPath id="4"><path clip-rule="evenodd" d="M8.871E-06 841L595.32 841L595.32 841L595.32 -0.9199829L595.32 -0.9199829L8.871E-06 -0.9199829z" /></clipPath><clipPath id="5"><path clip-rule="evenodd" d="M8.871E-06 841L595.32 841L595.32 841L595.32 -0.9199829L595.32 -0.9199829L8.871E-06 -0.9199829z" /></clipPath><clipPath id="6"><path clip-rule="evenodd" d="M8.871E-06 841L595.32 841L595.32 841L595.32 -0.9199829L595.32 -0.9199829L8.871E-06 -0.9199829z" /></clipPath><clipPath id="7"><path clip-rule="evenodd" d="M8.871E-06 841L595.32 841L595.32 841L595.32 -0.9199829L595.32 -0.9199829L8.871E-06 -0.9199829z" /></clipPath><clipPath id="8"><path clip-rule="evenodd" d="M8.871E-06 841L595.32 841L595.32 841L595.32 -0.9199829L595.32 -0.9199829L8.871E-06 -0.9199829z" /></clipPath><clipPath id="9"><path clip-rule="evenodd" d="M8.871E-06 841L595.32 841L595.32 841L595.32 -0.9199829L595.32 -0.9199829L8.871E-06 -0.9199829z" /></clipPath><clipPath id="10"><path clip-rule="evenodd" d="M8.871E-06 841L595.32 841L595.32 841L595.32 -0.9199829L595.32 -0.9199829L8.871E-06 -0.9199829z" /></clipPath><clipPath id="11"><path clip-rule="evenodd" d="M8.871E-06 841L595.32 841L595.32 841L595.32 -0.9199829L595.32 -0.9199829L8.871E-06 -0.9199829z" /></clipPath><clipPath id="12"><path clip-rule="evenodd" d="M8.871E-06 841L595.32 841L595.32 841L595.32 -0.9199829L595.32 -0.9199829L8.871E-06 -0.9199829z" /></clipPath><clipPath id="13"><path clip-rule="evenodd" d="M8.871E-06 841L595.32 841L595.32 841L595.32 -0.9199829L595.32 -0.9199829L8.871E-06 -0.9199829z" /></clipPath><clipPath id="14"><path clip-rule="evenodd" d="M8.871E-06 841L595.32 841L595.32 841L595.32 -0.9199829L595.32 -0.9199829L8.871E-06 -0.9199829z" /></clipPath><clipPath id="15"><path clip-rule="evenodd" d="M8.871E-06 841L595.32 841L595.32 841L595.32 -0.9199829L595.32 -0.9199829L8.871E-06 -0.9199829z" /></clipPath><clipPath id="16"><path clip-rule="evenodd" d="M8.871E-06 841L595.32 841L595.32 841L595.32 -0.9199829L595.32 -0.9199829L8.871E-06 -0.9199829z" /></clipPath><clipPath id="17"><path clip-rule="evenodd" d="M8.871E-06 841L595.32 841L595.32 841L595.32 -0.9199829L595.32 -0.9199829L8.871E-06 -0.9199829z" /></clipPath><clipPath id="18"><path clip-rule="evenodd" d="M8.871E-06 841L595.32 841L595.32 841L595.32 -0.9199829L595.32 -0.9199829L8.871E-06 -0.9199829z" /></clipPath><clipPath id="19"><path clip-rule="evenodd" d="M8.871E-06 841L595.32 841L595.32 841L595.32 -0.9199829L595.32 -0.9199829L8.871E-06 -0.9199829z" /></clipPath><clipPath id="20"><path clip-rule="evenodd" d="M8.871E-06 841L595.32 841L595.32 841L595.32 -0.9199829L595.32 -0.9199829L8.871E-06 -0.9199829z" /></clipPath><clipPath id="21"><path clip-rule="evenodd" d="M8.871E-06 841L595.32 841L595.32 841L595.32 -0.9199829L595.32 -0.9199829L8.871E-06 -0.9199829z" /></clipPath><clipPath id="22"><path clip-rule="evenodd" d="M8.871E-06 841L595.32 841L595.32 841L595.32 -0.9199829L595.32 -0.9199829L8.871E-06 -0.9199829z" /></clipPath><clipPath id="23"><path clip-rule="evenodd" d="M8.871E-06 841L595.32 841L595.32 841L595.32 -0.9199829L595.32 -0.9199829L8.871E-06 -0.9199829z" /></clipPath><clipPath id="24"><path clip-rule="evenodd" d="M8.871E-06 841L595.32 841L595.32 841L595.32 -0.9199829L595.32 -0.9199829L8.871E-06 -0.9199829z" /></clipPath><clipPath id="25"><path clip-rule="evenodd" d="M8.871E-06 841L595.32 841L595.32 841L595.32 -0.9199829L595.32 -0.9199829L8.871E-06 -0.9199829z" /></clipPath><clipPath id="26"><path clip-rule="evenodd" d="M8.871E-06 841L595.32 841L595.32 841L595.32 -0.9199829L595.32 -0.9199829L8.871E-06 -0.9199829z" /></clipPath><clipPath id="27"><path clip-rule="evenodd" d="M8.871E-06 841L595.32 841L595.32 841L595.32 -0.9199829L595.32 -0.9199829L8.871E-06 -0.9199829z" /></clipPath><clipPath id="28"><path clip-rule="evenodd" d="M8.871E-06 841L595.32 841L595.32 841L595.32 -0.9199829L595.32 -0.9199829L8.871E-06 -0.9199829z" /></clipPath><clipPath id="29"><path clip-rule="evenodd" d="M8.871E-06 841L595.32 841L595.32 841L595.32 -0.9199829L595.32 -0.9199829L8.871E-06 -0.9199829z" /></clipPath><clipPath id="30"><path clip-rule="evenodd" d="M8.871E-06 841L595.32 841L595.32 841L595.32 -0.9199829L595.32 -0.9199829L8.871E-06 -0.9199829z" /></clipPath><clipPath id="31"><path clip-rule="evenodd" d="M8.871E-06 841L595.32 841L595.32 841L595.32 -0.9199829L595.32 -0.9199829L8.871E-06 -0.9199829z" /></clipPath><clipPath id="32"><path clip-rule="evenodd" d="M8.871E-06 841L595.32 841L595.32 841L595.32 -0.9199829L595.32 -0.9199829L8.871E-06 -0.9199829z" /></clipPath><clipPath id="33"><path clip-rule="evenodd" d="M8.871E-06 841L595.32 841L595.32 841L595.32 -0.9199829L595.32 -0.9199829L8.871E-06 -0.9199829z" /></clipPath><clipPath id="34"><path clip-rule="evenodd" d="M8.871E-06 841L595.32 841L595.32 841L595.32 -0.9199829L595.32 -0.9199829L8.871E-06 -0.9199829z" /></clipPath><clipPath id="35"><path clip-rule="evenodd" d="M8.871E-06 841L595.32 841L595.32 841L595.32 -0.9199829L595.32 -0.9199829L8.871E-06 -0.9199829z" /></clipPath><clipPath id="36"><path clip-rule="evenodd" d="M8.871E-06 841L595.32 841L595.32 841L595.32 -0.9199829L595.32 -0.9199829L8.871E-06 -0.9199829z" /></clipPath><clipPath id="37"><path clip-rule="evenodd" d="M8.871E-06 841L595.32 841L595.32 841L595.32 -0.9199829L595.32 -0.9199829L8.871E-06 -0.9199829z" /></clipPath><clipPath id="38"><path clip-rule="evenodd" d="M61.2 447.93L547.18 447.93L547.18 447.93L547.18 57.28003L547.18 57.28003L61.2 57.28003z" /></clipPath><clipPath id="39"><path clip-rule="evenodd" d="M61.2 447.93L547.18 447.93L547.18 447.93L547.18 57.28003L547.18 57.28003L61.2 57.28003z" /></clipPath><clipPath id="40"><path clip-rule="evenodd" d="M61.2 447.93L547.18 447.93L547.18 447.93L547.18 57.28003L547.18 57.28003L61.2 57.28003z" /></clipPath><clipPath id="41"><path clip-rule="evenodd" d="M61.2 447.93L547.18 447.93L547.18 447.93L547.18 57.28003L547.18 57.28003L61.2 57.28003z" /></clipPath><clipPath id="42"><path clip-rule="evenodd" d="M61.2 447.93L547.18 447.93L547.18 447.93L547.18 57.28003L547.18 57.28003L61.2 57.28003z" /></clipPath><clipPath id="43"><path clip-rule="evenodd" d="M61.2 447.93L547.18 447.93L547.18 447.93L547.18 57.28003L547.18 57.28003L61.2 57.28003z" /></clipPath><clipPath id="44"><path clip-rule="evenodd" d="M61.2 447.93L547.18 447.93L547.18 447.93L547.18 57.28003L547.18 57.28003L61.2 57.28003z" /></clipPath><clipPath id="45"><path clip-rule="evenodd" d="M61.2 447.93L547.18 447.93L547.18 447.93L547.18 57.28003L547.18 57.28003L61.2 57.28003z" /></clipPath><clipPath id="46"><path clip-rule="evenodd" d="M61.2 447.93L547.18 447.93L547.18 447.93L547.18 57.28003L547.18 57.28003L61.2 57.28003z" /></clipPath><clipPath id="47"><path clip-rule="evenodd" d="M61.2 447.93L547.18 447.93L547.18 447.93L547.18 57.28003L547.18 57.28003L61.2 57.28003z" /></clipPath><clipPath id="48"><path clip-rule="evenodd" d="M61.2 447.93L547.18 447.93L547.18 447.93L547.18 57.28003L547.18 57.28003L61.2 57.28003z" /></clipPath><clipPath id="49"><path clip-rule="evenodd" d="M61.2 447.93L547.18 447.93L547.18 447.93L547.18 57.28003L547.18 57.28003L61.2 57.28003z" /></clipPath><clipPath id="50"><path clip-rule="evenodd" d="M61.2 447.93L547.18 447.93L547.18 447.93L547.18 57.28003L547.18 57.28003L61.2 57.28003z" /></clipPath><clipPath id="51"><path clip-rule="evenodd" d="M61.2 447.93L547.18 447.93L547.18 447.93L547.18 57.28003L547.18 57.28003L61.2 57.28003z" /></clipPath><clipPath id="52"><path clip-rule="evenodd" d="M61.2 447.93L547.18 447.93L547.18 447.93L547.18 57.28003L547.18 57.28003L61.2 57.28003z" /></clipPath><clipPath id="53"><path clip-rule="evenodd" d="M61.2 447.93L547.18 447.93L547.18 447.93L547.18 57.28003L547.18 57.28003L61.2 57.28003z" /></clipPath><clipPath id="54"><path clip-rule="evenodd" d="M61.2 447.93L547.18 447.93L547.18 447.93L547.18 57.28003L547.18 57.28003L61.2 57.28003z" /></clipPath><clipPath id="55"><path clip-rule="evenodd" d="M61.2 447.93L547.18 447.93L547.18 447.93L547.18 57.28003L547.18 57.28003L61.2 57.28003z" /></clipPath><clipPath id="56"><path clip-rule="evenodd" d="M61.2 447.93L547.18 447.93L547.18 447.93L547.18 57.28003L547.18 57.28003L61.2 57.28003z" /></clipPath><clipPath id="57"><path clip-rule="evenodd" d="M61.2 447.93L547.18 447.93L547.18 447.93L547.18 57.28003L547.18 57.28003L61.2 57.28003z" /></clipPath><clipPath id="58"><path clip-rule="evenodd" d="M61.2 447.93L547.18 447.93L547.18 447.93L547.18 57.28003L547.18 57.28003L61.2 57.28003z" /></clipPath><clipPath id="59"><path clip-rule="evenodd" d="M61.2 447.93L547.18 447.93L547.18 447.93L547.18 57.28003L547.18 57.28003L61.2 57.28003z" /></clipPath><clipPath id="60"><path clip-rule="evenodd" d="M61.2 447.93L547.18 447.93L547.18 447.93L547.18 57.28003L547.18 57.28003L61.2 57.28003z" /></clipPath><clipPath id="61"><path clip-rule="evenodd" d="M61.2 447.93L547.18 447.93L547.18 447.93L547.18 57.28003L547.18 57.28003L61.2 57.28003z" /></clipPath><clipPath id="62"><path clip-rule="evenodd" d="M61.2 447.93L547.18 447.93L547.18 447.93L547.18 57.28003L547.18 57.28003L61.2 57.28003z" /></clipPath><clipPath id="63"><path clip-rule="evenodd" d="M61.2 447.93L547.18 447.93L547.18 447.93L547.18 57.28003L547.18 57.28003L61.2 57.28003z" /></clipPath><clipPath id="64"><path clip-rule="evenodd" d="M61.2 447.93L547.18 447.93L547.18 447.93L547.18 57.28003L547.18 57.28003L61.2 57.28003z" /></clipPath><clipPath id="65"><path clip-rule="evenodd" d="M61.2 447.93L547.18 447.93L547.18 447.93L547.18 57.28003L547.18 57.28003L61.2 57.28003z" /></clipPath><clipPath id="66"><path clip-rule="evenodd" d="M61.2 447.93L547.18 447.93L547.18 447.93L547.18 57.28003L547.18 57.28003L61.2 57.28003z" /></clipPath><clipPath id="67"><path clip-rule="evenodd" d="M61.2 447.93L547.18 447.93L547.18 447.93L547.18 57.28003L547.18 57.28003L61.2 57.28003z" /></clipPath><clipPath id="68"><path clip-rule="evenodd" d="M61.2 447.93L547.18 447.93L547.18 447.93L547.18 57.28003L547.18 57.28003L61.2 57.28003z" /></clipPath><clipPath id="69"><path clip-rule="evenodd" d="M61.2 447.93L547.18 447.93L547.18 447.93L547.18 57.28003L547.18 57.28003L61.2 57.28003z" /></clipPath><clipPath id="70"><path clip-rule="evenodd" d="M61.2 447.93L547.18 447.93L547.18 447.93L547.18 57.28003L547.18 57.28003L61.2 57.28003z" /></clipPath><clipPath id="71"><path clip-rule="evenodd" d="M61.2 447.93L547.18 447.93L547.18 447.93L547.18 57.28003L547.18 57.28003L61.2 57.28003z" /></clipPath><clipPath id="72"><path clip-rule="evenodd" d="M61.2 447.93L547.18 447.93L547.18 447.93L547.18 57.28003L547.18 57.28003L61.2 57.28003z" /></clipPath><clipPath id="73"><path clip-rule="evenodd" d="M61.2 447.93L547.18 447.93L547.18 447.93L547.18 57.28003L547.18 57.28003L61.2 57.28003z" /></clipPath><clipPath id="74"><path clip-rule="evenodd" d="M61.2 447.93L547.18 447.93L547.18 447.93L547.18 57.28003L547.18 57.28003L61.2 57.28003z" /></clipPath><clipPath id="75"><path clip-rule="evenodd" d="M61.2 447.93L547.18 447.93L547.18 447.93L547.18 57.28003L547.18 57.28003L61.2 57.28003z" /></clipPath><clipPath id="76"><path clip-rule="evenodd" d="M61.2 447.93L547.18 447.93L547.18 447.93L547.18 57.28003L547.18 57.28003L61.2 57.28003z" /></clipPath><clipPath id="77"><path clip-rule="evenodd" d="M61.2 447.93L547.18 447.93L547.18 447.93L547.18 57.28003L547.18 57.28003L61.2 57.28003z" /></clipPath><clipPath id="78"><path clip-rule="evenodd" d="M61.2 447.93L547.18 447.93L547.18 447.93L547.18 57.28003L547.18 57.28003L61.2 57.28003z" /></clipPath><clipPath id="79"><path clip-rule="evenodd" d="M61.2 447.93L547.18 447.93L547.18 447.93L547.18 57.28003L547.18 57.28003L61.2 57.28003z" /></clipPath><clipPath id="80"><path clip-rule="evenodd" d="M61.2 447.93L547.18 447.93L547.18 447.93L547.18 57.28003L547.18 57.28003L61.2 57.28003z" /></clipPath><clipPath id="81"><path clip-rule="evenodd" d="M61.2 447.93L547.18 447.93L547.18 447.93L547.18 57.28003L547.18 57.28003L61.2 57.28003z" /></clipPath><clipPath id="82"><path clip-rule="evenodd" d="M61.2 447.93L547.18 447.93L547.18 447.93L547.18 57.28003L547.18 57.28003L61.2 57.28003z" /></clipPath><clipPath id="83"><path clip-rule="evenodd" d="M61.2 447.93L547.18 447.93L547.18 447.93L547.18 57.28003L547.18 57.28003L61.2 57.28003z" /></clipPath><clipPath id="84"><path clip-rule="evenodd" d="M61.2 447.93L547.18 447.93L547.18 447.93L547.18 57.28003L547.18 57.28003L61.2 57.28003z" /></clipPath><clipPath id="85"><path clip-rule="evenodd" d="M61.2 447.93L547.18 447.93L547.18 447.93L547.18 57.28003L547.18 57.28003L61.2 57.28003z" /></clipPath><clipPath id="86"><path clip-rule="evenodd" d="M61.2 447.93L547.18 447.93L547.18 447.93L547.18 57.28003L547.18 57.28003L61.2 57.28003z" /></clipPath><clipPath id="87"><path clip-rule="evenodd" d="M61.2 447.93L547.18 447.93L547.18 447.93L547.18 57.28003L547.18 57.28003L61.2 57.28003z" /></clipPath><clipPath id="88"><path clip-rule="evenodd" d="M61.2 447.93L547.18 447.93L547.18 447.93L547.18 57.28003L547.18 57.28003L61.2 57.28003z" /></clipPath><clipPath id="89"><path clip-rule="evenodd" d="M61.2 447.93L547.18 447.93L547.18 447.93L547.18 57.28003L547.18 57.28003L61.2 57.28003z" /></clipPath><clipPath id="90"><path clip-rule="evenodd" d="M61.2 447.93L547.18 447.93L547.18 447.93L547.18 57.28003L547.18 57.28003L61.2 57.28003z" /></clipPath><clipPath id="91"><path clip-rule="evenodd" d="M61.2 447.93L547.18 447.93L547.18 447.93L547.18 57.28003L547.18 57.28003L61.2 57.28003z" /></clipPath><clipPath id="92"><path clip-rule="evenodd" d="M61.2 447.93L547.18 447.93L547.18 447.93L547.18 57.28003L547.18 57.28003L61.2 57.28003z" /></clipPath><clipPath id="93"><path clip-rule="evenodd" d="M61.2 447.93L547.18 447.93L547.18 447.93L547.18 57.28003L547.18 57.28003L61.2 57.28003z" /></clipPath><clipPath id="94"><path clip-rule="evenodd" d="M61.2 447.93L547.18 447.93L547.18 447.93L547.18 57.28003L547.18 57.28003L61.2 57.28003z" /></clipPath><clipPath id="95"><path clip-rule="evenodd" d="M61.2 447.93L547.18 447.93L547.18 447.93L547.18 57.28003L547.18 57.28003L61.2 57.28003z" /></clipPath><clipPath id="96"><path clip-rule="evenodd" d="M61.2 447.93L547.18 447.93L547.18 447.93L547.18 57.28003L547.18 57.28003L61.2 57.28003z" /></clipPath><clipPath id="97"><path clip-rule="evenodd" d="M61.2 447.93L547.18 447.93L547.18 447.93L547.18 57.28003L547.18 57.28003L61.2 57.28003z" /></clipPath><clipPath id="98"><path clip-rule="evenodd" d="M61.2 447.93L547.18 447.93L547.18 447.93L547.18 57.28003L547.18 57.28003L61.2 57.28003z" /></clipPath><clipPath id="99"><path clip-rule="evenodd" d="M61.2 447.93L547.18 447.93L547.18 447.93L547.18 57.28003L547.18 57.28003L61.2 57.28003z" /></clipPath><clipPath id="100"><path clip-rule="evenodd" d="M61.2 447.93L547.18 447.93L547.18 447.93L547.18 57.28003L547.18 57.28003L61.2 57.28003z" /></clipPath><clipPath id="101"><path clip-rule="evenodd" d="M61.2 447.93L547.18 447.93L547.18 447.93L547.18 57.28003L547.18 57.28003L61.2 57.28003z" /></clipPath><clipPath id="102"><path clip-rule="evenodd" d="M61.2 447.93L547.18 447.93L547.18 447.93L547.18 57.28003L547.18 57.28003L61.2 57.28003z" /></clipPath><clipPath id="103"><path clip-rule="evenodd" d="M61.2 447.93L547.18 447.93L547.18 447.93L547.18 57.28003L547.18 57.28003L61.2 57.28003z" /></clipPath><clipPath id="104"><path clip-rule="evenodd" d="M61.2 447.93L547.18 447.93L547.18 447.93L547.18 57.28003L547.18 57.28003L61.2 57.28003z" /></clipPath><clipPath id="105"><path clip-rule="evenodd" d="M61.2 447.93L547.18 447.93L547.18 447.93L547.18 57.28003L547.18 57.28003L61.2 57.28003z" /></clipPath><clipPath id="106"><path clip-rule="evenodd" d="M61.2 447.93L547.18 447.93L547.18 447.93L547.18 57.28003L547.18 57.28003L61.2 57.28003z" /></clipPath><clipPath id="107"><path clip-rule="evenodd" d="M61.2 447.93L547.18 447.93L547.18 447.93L547.18 57.28003L547.18 57.28003L61.2 57.28003z" /></clipPath><clipPath id="108"><path clip-rule="evenodd" d="M61.2 447.93L547.18 447.93L547.18 447.93L547.18 57.28003L547.18 57.28003L61.2 57.28003z" /></clipPath><clipPath id="109"><path clip-rule="evenodd" d="M61.2 447.93L547.18 447.93L547.18 447.93L547.18 57.28003L547.18 57.28003L61.2 57.28003z" /></clipPath><clipPath id="110"><path clip-rule="evenodd" d="M61.2 447.93L547.18 447.93L547.18 447.93L547.18 57.28003L547.18 57.28003L61.2 57.28003z" /></clipPath><clipPath id="111"><path clip-rule="evenodd" d="M61.2 447.93L547.18 447.93L547.18 447.93L547.18 57.28003L547.18 57.28003L61.2 57.28003z" /></clipPath><clipPath id="112"><path clip-rule="evenodd" d="M61.2 447.93L547.18 447.93L547.18 447.93L547.18 57.28003L547.18 57.28003L61.2 57.28003z" /></clipPath><clipPath id="113"><path clip-rule="evenodd" d="M61.2 447.93L547.18 447.93L547.18 447.93L547.18 57.28003L547.18 57.28003L61.2 57.28003z" /></clipPath><clipPath id="114"><path clip-rule="evenodd" d="M61.2 447.93L547.18 447.93L547.18 447.93L547.18 57.28003L547.18 57.28003L61.2 57.28003z" /></clipPath><clipPath id="115"><path clip-rule="evenodd" d="M61.2 447.93L547.18 447.93L547.18 447.93L547.18 57.28003L547.18 57.28003L61.2 57.28003z" /></clipPath><clipPath id="116"><path clip-rule="evenodd" d="M61.2 447.93L547.18 447.93L547.18 447.93L547.18 57.28003L547.18 57.28003L61.2 57.28003z" /></clipPath><clipPath id="117"><path clip-rule="evenodd" d="M61.2 447.93L547.18 447.93L547.18 447.93L547.18 57.28003L547.18 57.28003L61.2 57.28003z" /></clipPath><clipPath id="118"><path clip-rule="evenodd" d="M61.2 447.93L547.18 447.93L547.18 447.93L547.18 57.28003L547.18 57.28003L61.2 57.28003z" /></clipPath><clipPath id="119"><path clip-rule="evenodd" d="M61.2 447.93L547.18 447.93L547.18 447.93L547.18 57.28003L547.18 57.28003L61.2 57.28003z" /></clipPath><clipPath id="120"><path clip-rule="evenodd" d="M61.2 447.93L547.18 447.93L547.18 447.93L547.18 57.28003L547.18 57.28003L61.2 57.28003z" /></clipPath><clipPath id="121"><path clip-rule="evenodd" d="M61.2 447.93L547.18 447.93L547.18 447.93L547.18 57.28003L547.18 57.28003L61.2 57.28003z" /></clipPath><clipPath id="122"><path clip-rule="evenodd" d="M61.2 447.93L547.18 447.93L547.18 447.93L547.18 57.28003L547.18 57.28003L61.2 57.28003z" /></clipPath><clipPath id="123"><path clip-rule="evenodd" d="M61.2 447.93L547.18 447.93L547.18 447.93L547.18 57.28003L547.18 57.28003L61.2 57.28003z" /></clipPath><clipPath id="124"><path clip-rule="evenodd" d="M61.2 447.93L547.18 447.93L547.18 447.93L547.18 57.28003L547.18 57.28003L61.2 57.28003z" /></clipPath><clipPath id="125"><path clip-rule="evenodd" d="M61.2 447.93L547.18 447.93L547.18 447.93L547.18 57.28003L547.18 57.28003L61.2 57.28003z" /></clipPath><clipPath id="126"><path clip-rule="evenodd" d="M61.2 447.93L547.18 447.93L547.18 447.93L547.18 57.28003L547.18 57.28003L61.2 57.28003z" /></clipPath><clipPath id="127"><path clip-rule="evenodd" d="M61.2 447.93L547.18 447.93L547.18 447.93L547.18 57.28003L547.18 57.28003L61.2 57.28003z" /></clipPath><clipPath id="128"><path clip-rule="evenodd" d="M61.2 447.93L547.18 447.93L547.18 447.93L547.18 57.28003L547.18 57.28003L61.2 57.28003z" /></clipPath><clipPath id="129"><path clip-rule="evenodd" d="M61.2 447.93L547.18 447.93L547.18 447.93L547.18 57.28003L547.18 57.28003L61.2 57.28003z" /></clipPath><clipPath id="130"><path clip-rule="evenodd" d="M61.2 447.93L547.18 447.93L547.18 447.93L547.18 57.28003L547.18 57.28003L61.2 57.28003z" /></clipPath><clipPath id="131"><path clip-rule="evenodd" d="M61.2 447.93L547.18 447.93L547.18 447.93L547.18 57.28003L547.18 57.28003L61.2 57.28003z" /></clipPath><clipPath id="132"><path clip-rule="evenodd" d="M61.2 447.93L547.18 447.93L547.18 447.93L547.18 57.28003L547.18 57.28003L61.2 57.28003z" /></clipPath><clipPath id="133"><path clip-rule="evenodd" d="M61.2 447.93L547.18 447.93L547.18 447.93L547.18 57.28003L547.18 57.28003L61.2 57.28003z" /></clipPath><clipPath id="134"><path clip-rule="evenodd" d="M61.2 447.93L547.18 447.93L547.18 447.93L547.18 57.28003L547.18 57.28003L61.2 57.28003z" /></clipPath><clipPath id="135"><path clip-rule="evenodd" d="M61.2 447.93L547.18 447.93L547.18 447.93L547.18 57.28003L547.18 57.28003L61.2 57.28003z" /></clipPath><clipPath id="136"><path clip-rule="evenodd" d="M61.2 447.93L547.18 447.93L547.18 447.93L547.18 57.28003L547.18 57.28003L61.2 57.28003z" /></clipPath><clipPath id="137"><path clip-rule="evenodd" d="M61.2 447.93L547.18 447.93L547.18 447.93L547.18 57.28003L547.18 57.28003L61.2 57.28003z" /></clipPath><clipPath id="138"><path clip-rule="evenodd" d="M61.2 447.93L547.18 447.93L547.18 447.93L547.18 57.28003L547.18 57.28003L61.2 57.28003z" /></clipPath><clipPath id="139"><path clip-rule="evenodd" d="M61.2 447.93L547.18 447.93L547.18 447.93L547.18 57.28003L547.18 57.28003L61.2 57.28003z" /></clipPath><clipPath id="140"><path clip-rule="evenodd" d="M61.2 447.93L547.18 447.93L547.18 447.93L547.18 57.28003L547.18 57.28003L61.2 57.28003z" /></clipPath><clipPath id="141"><path clip-rule="evenodd" d="M61.2 447.93L547.18 447.93L547.18 447.93L547.18 57.28003L547.18 57.28003L61.2 57.28003z" /></clipPath><clipPath id="142"><path clip-rule="evenodd" d="M61.2 447.93L547.18 447.93L547.18 447.93L547.18 57.28003L547.18 57.28003L61.2 57.28003z" /></clipPath><clipPath id="143"><path clip-rule="evenodd" d="M61.2 447.93L547.18 447.93L547.18 447.93L547.18 57.28003L547.18 57.28003L61.2 57.28003z" /></clipPath><clipPath id="144"><path clip-rule="evenodd" d="M61.2 447.93L547.18 447.93L547.18 447.93L547.18 57.28003L547.18 57.28003L61.2 57.28003z" /></clipPath><clipPath id="145"><path clip-rule="evenodd" d="M61.2 447.93L547.18 447.93L547.18 447.93L547.18 57.28003L547.18 57.28003L61.2 57.28003z" /></clipPath><clipPath id="146"><path clip-rule="evenodd" d="M61.2 447.93L547.18 447.93L547.18 447.93L547.18 57.28003L547.18 57.28003L61.2 57.28003z" /></clipPath><clipPath id="147"><path clip-rule="evenodd" d="M61.2 447.93L547.18 447.93L547.18 447.93L547.18 57.28003L547.18 57.28003L61.2 57.28003z" /></clipPath><clipPath id="148"><path clip-rule="evenodd" d="M61.2 447.93L547.18 447.93L547.18 447.93L547.18 57.28003L547.18 57.28003L61.2 57.28003z" /></clipPath><clipPath id="149"><path clip-rule="evenodd" d="M61.2 447.93L547.18 447.93L547.18 447.93L547.18 57.28003L547.18 57.28003L61.2 57.28003z" /></clipPath><clipPath id="150"><path clip-rule="evenodd" d="M61.2 447.93L547.18 447.93L547.18 447.93L547.18 57.28003L547.18 57.28003L61.2 57.28003z" /></clipPath><clipPath id="151"><path clip-rule="evenodd" d="M61.2 447.93L547.18 447.93L547.18 447.93L547.18 57.28003L547.18 57.28003L61.2 57.28003z" /></clipPath><clipPath id="152"><path clip-rule="evenodd" d="M61.2 447.93L547.18 447.93L547.18 447.93L547.18 57.28003L547.18 57.28003L61.2 57.28003z" /></clipPath><clipPath id="153"><path clip-rule="evenodd" d="M61.2 447.93L547.18 447.93L547.18 447.93L547.18 57.28003L547.18 57.28003L61.2 57.28003z" /></clipPath><clipPath id="154"><path clip-rule="evenodd" d="M61.2 447.93L547.18 447.93L547.18 447.93L547.18 57.28003L547.18 57.28003L61.2 57.28003z" /></clipPath><clipPath id="155"><path clip-rule="evenodd" d="M61.2 447.93L547.18 447.93L547.18 447.93L547.18 57.28003L547.18 57.28003L61.2 57.28003z" /></clipPath><clipPath id="156"><path clip-rule="evenodd" d="M61.2 447.93L547.18 447.93L547.18 447.93L547.18 57.28003L547.18 57.28003L61.2 57.28003z" /></clipPath><clipPath id="157"><path clip-rule="evenodd" d="M61.2 447.93L547.18 447.93L547.18 447.93L547.18 57.28003L547.18 57.28003L61.2 57.28003z" /></clipPath><clipPath id="158"><path clip-rule="evenodd" d="M61.2 447.93L547.18 447.93L547.18 447.93L547.18 57.28003L547.18 57.28003L61.2 57.28003z" /></clipPath><clipPath id="159"><path clip-rule="evenodd" d="M61.2 447.93L547.18 447.93L547.18 447.93L547.18 57.28003L547.18 57.28003L61.2 57.28003z" /></clipPath><clipPath id="160"><path clip-rule="evenodd" d="M61.2 447.93L547.18 447.93L547.18 447.93L547.18 57.28003L547.18 57.28003L61.2 57.28003z" /></clipPath><clipPath id="161"><path clip-rule="evenodd" d="M61.2 447.93L547.18 447.93L547.18 447.93L547.18 57.28003L547.18 57.28003L61.2 57.28003z" /></clipPath><clipPath id="162"><path clip-rule="evenodd" d="M61.2 447.93L547.18 447.93L547.18 447.93L547.18 57.28003L547.18 57.28003L61.2 57.28003z" /></clipPath><clipPath id="163"><path clip-rule="evenodd" d="M61.2 447.93L547.18 447.93L547.18 447.93L547.18 57.28003L547.18 57.28003L61.2 57.28003z" /></clipPath><clipPath id="164"><path clip-rule="evenodd" d="M61.2 447.93L547.18 447.93L547.18 447.93L547.18 57.28003L547.18 57.28003L61.2 57.28003z" /></clipPath><clipPath id="165"><path clip-rule="evenodd" d="M61.2 447.93L547.18 447.93L547.18 447.93L547.18 57.28003L547.18 57.28003L61.2 57.28003z" /></clipPath><clipPath id="166"><path clip-rule="evenodd" d="M61.2 447.93L547.18 447.93L547.18 447.93L547.18 57.28003L547.18 57.28003L61.2 57.28003z" /></clipPath><clipPath id="167"><path clip-rule="evenodd" d="M61.2 447.93L547.18 447.93L547.18 447.93L547.18 57.28003L547.18 57.28003L61.2 57.28003z" /></clipPath><clipPath id="168"><path clip-rule="evenodd" d="M61.2 447.93L547.18 447.93L547.18 447.93L547.18 57.28003L547.18 57.28003L61.2 57.28003z" /></clipPath><clipPath id="169"><path clip-rule="evenodd" d="M61.2 447.93L547.18 447.93L547.18 447.93L547.18 57.28003L547.18 57.28003L61.2 57.28003z" /></clipPath><clipPath id="170"><path clip-rule="evenodd" d="M61.2 447.93L547.18 447.93L547.18 447.93L547.18 57.28003L547.18 57.28003L61.2 57.28003z" /></clipPath><clipPath id="171"><path clip-rule="evenodd" d="M61.2 447.93L547.18 447.93L547.18 447.93L547.18 57.28003L547.18 57.28003L61.2 57.28003z" /></clipPath><clipPath id="172"><path clip-rule="evenodd" d="M61.2 447.93L547.18 447.93L547.18 447.93L547.18 57.28003L547.18 57.28003L61.2 57.28003z" /></clipPath><clipPath id="173"><path clip-rule="evenodd" d="M61.2 447.93L547.18 447.93L547.18 447.93L547.18 57.28003L547.18 57.28003L61.2 57.28003z" /></clipPath><clipPath id="174"><path clip-rule="evenodd" d="M61.2 447.93L547.18 447.93L547.18 447.93L547.18 57.28003L547.18 57.28003L61.2 57.28003z" /></clipPath><clipPath id="175"><path clip-rule="evenodd" d="M233.69 83.44L354.67 83.44L354.67 83.44L354.67 51.64001L354.67 51.64001L233.69 51.64001z" /></clipPath><clipPath id="176"><path clip-rule="evenodd" d="M233.69 83.44L354.67 83.44L354.67 83.44L354.67 51.64001L354.67 51.64001L233.69 51.64001z" /></clipPath><clipPath id="177"><path clip-rule="evenodd" d="M233.69 83.44L354.67 83.44L354.67 83.44L354.67 51.64001L354.67 51.64001L233.69 51.64001z" /></clipPath><clipPath id="178"><path clip-rule="evenodd" d="M233.69 83.44L354.67 83.44L354.67 83.44L354.67 51.64001L354.67 51.64001L233.69 51.64001z" /></clipPath><clipPath id="179"><path clip-rule="evenodd" d="M233.69 83.44L354.67 83.44L354.67 83.44L354.67 51.64001L354.67 51.64001L233.69 51.64001z" /></clipPath><clipPath id="180"><path clip-rule="evenodd" d="M233.69 83.44L354.67 83.44L354.67 83.44L354.67 51.64001L354.67 51.64001L233.69 51.64001z" /></clipPath><clipPath id="181"><path clip-rule="evenodd" d="M233.69 83.44L354.67 83.44L354.67 83.44L354.67 51.64001L354.67 51.64001L233.69 51.64001z" /></clipPath><clipPath id="182"><path clip-rule="evenodd" d="M233.69 83.44L354.67 83.44L354.67 83.44L354.67 51.64001L354.67 51.64001L233.69 51.64001z" /></clipPath><clipPath id="183"><path clip-rule="evenodd" d="M233.69 83.44L354.67 83.44L354.67 83.44L354.67 51.64001L354.67 51.64001L233.69 51.64001z" /></clipPath><clipPath id="184"><path clip-rule="evenodd" d="M233.69 83.44L354.67 83.44L354.67 83.44L354.67 51.64001L354.67 51.64001L233.69 51.64001z" /></clipPath><clipPath id="185"><path clip-rule="evenodd" d="M233.69 83.44L354.67 83.44L354.67 83.44L354.67 51.64001L354.67 51.64001L233.69 51.64001z" /></clipPath><clipPath id="186"><path clip-rule="evenodd" d="M233.69 83.44L354.67 83.44L354.67 83.44L354.67 51.64001L354.67 51.64001L233.69 51.64001z" /></clipPath><clipPath id="187"><path clip-rule="evenodd" d="M233.69 83.44L354.67 83.44L354.67 83.44L354.67 51.64001L354.67 51.64001L233.69 51.64001z" /></clipPath><clipPath id="188"><path clip-rule="evenodd" d="M54.12 82.96002L149.184 82.96002L149.184 82.96002L149.184 52.36005L149.184 52.36005L54.12 52.36005z" /></clipPath><clipPath id="189"><path clip-rule="evenodd" d="M54.12 82.96002L149.184 82.96002L149.184 82.96002L149.184 52.36005L149.184 52.36005L54.12 52.36005z" /></clipPath><clipPath id="190"><path clip-rule="evenodd" d="M445.51 79.23999L547.17 79.23999L547.17 79.23999L547.17 49.83997L547.17 49.83997L445.51 49.83997z" /></clipPath><clipPath id="191"><path clip-rule="evenodd" d="M445.51 79.23999L547.17 79.23999L547.17 79.23999L547.17 49.83997L547.17 49.83997L445.51 49.83997z" /></clipPath><clipPath id="192"><path clip-rule="evenodd" d="M56.16 104.22L193.46 104.22L193.46 104.22L193.46 88.13995L193.46 88.13995L56.16 88.13995z" /></clipPath><clipPath id="193"><path clip-rule="evenodd" d="M56.16 104.22L193.46 104.22L193.46 104.22L193.46 88.11597L193.46 88.11597L56.16 88.11597z" /></clipPath><clipPath id="194"><path clip-rule="evenodd" d="M56.16 104.22L193.46 104.22L193.46 104.22L193.46 88.11597L193.46 88.11597L56.16 88.11597z" /></clipPath><clipPath id="195"><path clip-rule="evenodd" d="M196.37 104.46L360.31 104.46L360.31 104.46L360.31 88.26001L360.31 88.26001L196.37 88.26001z" /></clipPath><clipPath id="196"><path clip-rule="evenodd" d="M196.34 104.46L360.31 104.46L360.31 104.46L360.31 88.23602L360.31 88.23602L196.34 88.23602z" /></clipPath><clipPath id="197"><path clip-rule="evenodd" d="M196.34 104.46L360.31 104.46L360.31 104.46L360.31 88.23602L360.31 88.23602L196.34 88.23602z" /></clipPath><clipPath id="198"><path clip-rule="evenodd" d="M196.34 104.46L360.31 104.46L360.31 104.46L360.31 88.23602L360.31 88.23602L196.34 88.23602z" /></clipPath><clipPath id="199"><path clip-rule="evenodd" d="M196.34 104.46L360.31 104.46L360.31 104.46L360.31 88.23602L360.31 88.23602L196.34 88.23602z" /></clipPath><clipPath id="200"><path clip-rule="evenodd" d="M196.34 104.46L360.31 104.46L360.31 104.46L360.31 88.23602L360.31 88.23602L196.34 88.23602z" /></clipPath><clipPath id="201"><path clip-rule="evenodd" d="M196.34 104.46L360.31 104.46L360.31 104.46L360.31 88.23602L360.31 88.23602L196.34 88.23602z" /></clipPath><clipPath id="202"><path clip-rule="evenodd" d="M196.34 104.46L360.31 104.46L360.31 104.46L360.31 88.23602L360.31 88.23602L196.34 88.23602z" /></clipPath><clipPath id="203"><path clip-rule="evenodd" d="M196.34 104.46L360.31 104.46L360.31 104.46L360.31 88.23602L360.31 88.23602L196.34 88.23602z" /></clipPath><clipPath id="204"><path clip-rule="evenodd" d="M196.34 104.46L360.31 104.46L360.31 104.46L360.31 88.23602L360.31 88.23602L196.34 88.23602z" /></clipPath><clipPath id="205"><path clip-rule="evenodd" d="M196.34 104.46L360.31 104.46L360.31 104.46L360.31 88.23602L360.31 88.23602L196.34 88.23602z" /></clipPath><clipPath id="206"><path clip-rule="evenodd" d="M196.34 104.46L360.31 104.46L360.31 104.46L360.31 88.23602L360.31 88.23602L196.34 88.23602z" /></clipPath><clipPath id="207"><path clip-rule="evenodd" d="M196.34 104.46L360.31 104.46L360.31 104.46L360.31 88.23602L360.31 88.23602L196.34 88.23602z" /></clipPath><clipPath id="208"><path clip-rule="evenodd" d="M196.34 104.46L360.31 104.46L360.31 104.46L360.31 88.23602L360.31 88.23602L196.34 88.23602z" /></clipPath><clipPath id="209"><path clip-rule="evenodd" d="M196.34 104.46L360.31 104.46L360.31 104.46L360.31 88.23602L360.31 88.23602L196.34 88.23602z" /></clipPath><clipPath id="210"><path clip-rule="evenodd" d="M364.03 104.46L442.75 104.46L442.75 104.46L442.75 88.26001L442.75 88.26001L364.03 88.26001z" /></clipPath><clipPath id="211"><path clip-rule="evenodd" d="M364.03 104.46L442.75 104.46L442.75 104.46L442.75 88.23602L442.75 88.23602L364.03 88.23602z" /></clipPath><clipPath id="212"><path clip-rule="evenodd" d="M364.03 104.46L442.75 104.46L442.75 104.46L442.75 88.23602L442.75 88.23602L364.03 88.23602z" /></clipPath><clipPath id="213"><path clip-rule="evenodd" d="M364.03 104.46L442.75 104.46L442.75 104.46L442.75 88.23602L442.75 88.23602L364.03 88.23602z" /></clipPath><clipPath id="214"><path clip-rule="evenodd" d="M364.03 104.46L442.75 104.46L442.75 104.46L442.75 88.23602L442.75 88.23602L364.03 88.23602z" /></clipPath><clipPath id="215"><path clip-rule="evenodd" d="M435.67 111.9L538.17 111.9L538.17 111.9L538.17 88.5L538.17 88.5L435.67 88.5z" /></clipPath><clipPath id="216"><path clip-rule="evenodd" d="M435.67 111.9L538.17 111.9L538.17 111.9L538.17 88.47601L538.17 88.47601L435.67 88.47601z" /></clipPath><clipPath id="217"><path clip-rule="evenodd" d="M435.67 111.9L538.17 111.9L538.17 111.9L538.17 88.47601L538.17 88.47601L435.67 88.47601z" /></clipPath><clipPath id="218"><path clip-rule="evenodd" d="M8.871E-06 841L595.32 841L595.32 841L595.32 -0.9199829L595.32 -0.9199829L8.871E-06 -0.9199829z" /></clipPath><clipPath id="219"><path clip-rule="evenodd" d="M8.871E-06 841L595.32 841L595.32 841L595.32 -0.9199829L595.32 -0.9199829L8.871E-06 -0.9199829z" /></clipPath><clipPath id="220"><path clip-rule="evenodd" d="M8.871E-06 841L595.32 841L595.32 841L595.32 -0.9199829L595.32 -0.9199829L8.871E-06 -0.9199829z" /></clipPath><clipPath id="221"><path clip-rule="evenodd" d="M8.871E-06 841L595.32 841L595.32 841L595.32 -0.9199829L595.32 -0.9199829L8.871E-06 -0.9199829z" /></clipPath><clipPath id="222"><path clip-rule="evenodd" d="M8.871E-06 841L595.32 841L595.32 841L595.32 -0.9199829L595.32 -0.9199829L8.871E-06 -0.9199829z" /></clipPath><clipPath id="223"><path clip-rule="evenodd" d="M8.871E-06 841L595.32 841L595.32 841L595.32 -0.9199829L595.32 -0.9199829L8.871E-06 -0.9199829z" /></clipPath><clipPath id="224"><path clip-rule="evenodd" d="M8.871E-06 841L595.32 841L595.32 841L595.32 -0.9199829L595.32 -0.9199829L8.871E-06 -0.9199829z" /></clipPath><clipPath id="225"><path clip-rule="evenodd" d="M8.871E-06 841L595.32 841L595.32 841L595.32 -0.9199829L595.32 -0.9199829L8.871E-06 -0.9199829z" /></clipPath><clipPath id="226"><path clip-rule="evenodd" d="M8.871E-06 841L595.32 841L595.32 841L595.32 -0.9199829L595.32 -0.9199829L8.871E-06 -0.9199829z" /></clipPath><clipPath id="227"><path clip-rule="evenodd" d="M8.871E-06 841L595.32 841L595.32 841L595.32 -0.9199829L595.32 -0.9199829L8.871E-06 -0.9199829z" /></clipPath><clipPath id="228"><path clip-rule="evenodd" d="M8.871E-06 841L595.32 841L595.32 841L595.32 -0.9199829L595.32 -0.9199829L8.871E-06 -0.9199829z" /></clipPath><clipPath id="229"><path clip-rule="evenodd" d="M8.871E-06 841L595.32 841L595.32 841L595.32 -0.9199829L595.32 -0.9199829L8.871E-06 -0.9199829z" /></clipPath><clipPath id="230"><path clip-rule="evenodd" d="M8.871E-06 841L595.32 841L595.32 841L595.32 -0.9199829L595.32 -0.9199829L8.871E-06 -0.9199829z" /></clipPath><clipPath id="231"><path clip-rule="evenodd" d="M8.871E-06 841L595.32 841L595.32 841L595.32 -0.9199829L595.32 -0.9199829L8.871E-06 -0.9199829z" /></clipPath><clipPath id="232"><path clip-rule="evenodd" d="M8.871E-06 841L595.32 841L595.32 841L595.32 -0.9199829L595.32 -0.9199829L8.871E-06 -0.9199829z" /></clipPath><clipPath id="233"><path clip-rule="evenodd" d="M8.871E-06 841L595.32 841L595.32 841L595.32 -0.9199829L595.32 -0.9199829L8.871E-06 -0.9199829z" /></clipPath><clipPath id="234"><path clip-rule="evenodd" d="M8.871E-06 841L595.32 841L595.32 841L595.32 -0.9199829L595.32 -0.9199829L8.871E-06 -0.9199829z" /></clipPath><clipPath id="235"><path clip-rule="evenodd" d="M8.871E-06 841L595.32 841L595.32 841L595.32 -0.9199829L595.32 -0.9199829L8.871E-06 -0.9199829z" /></clipPath><clipPath id="236"><path clip-rule="evenodd" d="M8.871E-06 841L595.32 841L595.32 841L595.32 -0.9199829L595.32 -0.9199829L8.871E-06 -0.9199829z" /></clipPath><clipPath id="237"><path clip-rule="evenodd" d="M8.871E-06 841L595.32 841L595.32 841L595.32 -0.9199829L595.32 -0.9199829L8.871E-06 -0.9199829z" /></clipPath><clipPath id="238"><path clip-rule="evenodd" d="M8.871E-06 841L595.32 841L595.32 841L595.32 -0.9199829L595.32 -0.9199829L8.871E-06 -0.9199829z" /></clipPath><clipPath id="239"><path clip-rule="evenodd" d="M8.871E-06 841L595.32 841L595.32 841L595.32 -0.9199829L595.32 -0.9199829L8.871E-06 -0.9199829z" /></clipPath><clipPath id="240"><path clip-rule="evenodd" d="M8.871E-06 841L595.32 841L595.32 841L595.32 -0.9199829L595.32 -0.9199829L8.871E-06 -0.9199829z" /></clipPath><clipPath id="241"><path clip-rule="evenodd" d="M8.871E-06 841L595.32 841L595.32 841L595.32 -0.9199829L595.32 -0.9199829L8.871E-06 -0.9199829z" /></clipPath><clipPath id="242"><path clip-rule="evenodd" d="M8.871E-06 841L595.32 841L595.32 841L595.32 -0.9199829L595.32 -0.9199829L8.871E-06 -0.9199829z" /></clipPath><clipPath id="243"><path clip-rule="evenodd" d="M8.871E-06 841L595.32 841L595.32 841L595.32 -0.9199829L595.32 -0.9199829L8.871E-06 -0.9199829z" /></clipPath><clipPath id="244"><path clip-rule="evenodd" d="M8.871E-06 841L595.32 841L595.32 841L595.32 -0.9199829L595.32 -0.9199829L8.871E-06 -0.9199829z" /></clipPath><clipPath id="245"><path clip-rule="evenodd" d="M8.871E-06 841L595.32 841L595.32 841L595.32 -0.9199829L595.32 -0.9199829L8.871E-06 -0.9199829z" /></clipPath><clipPath id="246"><path clip-rule="evenodd" d="M8.871E-06 841L595.32 841L595.32 841L595.32 -0.9199829L595.32 -0.9199829L8.871E-06 -0.9199829z" /></clipPath><clipPath id="247"><path clip-rule="evenodd" d="M8.871E-06 841L595.32 841L595.32 841L595.32 -0.9199829L595.32 -0.9199829L8.871E-06 -0.9199829z" /></clipPath><clipPath id="248"><path clip-rule="evenodd" d="M8.871E-06 841L595.32 841L595.32 841L595.32 -0.9199829L595.32 -0.9199829L8.871E-06 -0.9199829z" /></clipPath><clipPath id="249"><path clip-rule="evenodd" d="M8.871E-06 841L595.32 841L595.32 841L595.32 -0.9199829L595.32 -0.9199829L8.871E-06 -0.9199829z" /></clipPath><clipPath id="250"><path clip-rule="evenodd" d="M8.871E-06 841L595.32 841L595.32 841L595.32 -0.9199829L595.32 -0.9199829L8.871E-06 -0.9199829z" /></clipPath><clipPath id="251"><path clip-rule="evenodd" d="M8.871E-06 841L595.32 841L595.32 841L595.32 -0.9199829L595.32 -0.9199829L8.871E-06 -0.9199829z" /></clipPath><clipPath id="252"><path clip-rule="evenodd" d="M8.871E-06 841L595.32 841L595.32 841L595.32 -0.9199829L595.32 -0.9199829L8.871E-06 -0.9199829z" /></clipPath><clipPath id="253"><path clip-rule="evenodd" d="M8.871E-06 841L595.32 841L595.32 841L595.32 -0.9199829L595.32 -0.9199829L8.871E-06 -0.9199829z" /></clipPath><clipPath id="254"><path clip-rule="evenodd" d="M8.871E-06 841L595.32 841L595.32 841L595.32 -0.9199829L595.32 -0.9199829L8.871E-06 -0.9199829z" /></clipPath><clipPath id="255"><path clip-rule="evenodd" d="M8.871E-06 841L595.32 841L595.32 841L595.32 -0.9199829L595.32 -0.9199829L8.871E-06 -0.9199829z" /></clipPath><clipPath id="256"><path clip-rule="evenodd" d="M8.871E-06 841L595.32 841L595.32 841L595.32 -0.9199829L595.32 -0.9199829L8.871E-06 -0.9199829z" /></clipPath><clipPath id="257"><path clip-rule="evenodd" d="M8.871E-06 841L595.32 841L595.32 841L595.32 -0.9199829L595.32 -0.9199829L8.871E-06 -0.9199829z" /></clipPath><clipPath id="258"><path clip-rule="evenodd" d="M8.871E-06 841L595.32 841L595.32 841L595.32 -0.9199829L595.32 -0.9199829L8.871E-06 -0.9199829z" /></clipPath><clipPath id="259"><path clip-rule="evenodd" d="M8.871E-06 841L595.32 841L595.32 841L595.32 -0.9199829L595.32 -0.9199829L8.871E-06 -0.9199829z" /></clipPath><clipPath id="260"><path clip-rule="evenodd" d="M8.871E-06 841L595.32 841L595.32 841L595.32 -0.9199829L595.32 -0.9199829L8.871E-06 -0.9199829z" /></clipPath><clipPath id="261"><path clip-rule="evenodd" d="M8.871E-06 841L595.32 841L595.32 841L595.32 -0.9199829L595.32 -0.9199829L8.871E-06 -0.9199829z" /></clipPath><clipPath id="262"><path clip-rule="evenodd" d="M8.871E-06 841L595.32 841L595.32 841L595.32 -0.9199829L595.32 -0.9199829L8.871E-06 -0.9199829z" /></clipPath><clipPath id="263"><path clip-rule="evenodd" d="M8.871E-06 841L595.32 841L595.32 841L595.32 -0.9199829L595.32 -0.9199829L8.871E-06 -0.9199829z" /></clipPath><clipPath id="264"><path clip-rule="evenodd" d="M8.871E-06 841L595.32 841L595.32 841L595.32 -0.9199829L595.32 -0.9199829L8.871E-06 -0.9199829z" /></clipPath><clipPath id="265"><path clip-rule="evenodd" d="M8.871E-06 841L595.32 841L595.32 841L595.32 -0.9199829L595.32 -0.9199829L8.871E-06 -0.9199829z" /></clipPath><clipPath id="266"><path clip-rule="evenodd" d="M8.871E-06 841L595.32 841L595.32 841L595.32 -0.9199829L595.32 -0.9199829L8.871E-06 -0.9199829z" /></clipPath><clipPath id="267"><path clip-rule="evenodd" d="M8.871E-06 841L595.32 841L595.32 841L595.32 -0.9199829L595.32 -0.9199829L8.871E-06 -0.9199829z" /></clipPath><clipPath id="268"><path clip-rule="evenodd" d="M8.871E-06 841L595.32 841L595.32 841L595.32 -0.9199829L595.32 -0.9199829L8.871E-06 -0.9199829z" /></clipPath><clipPath id="269"><path clip-rule="evenodd" d="M8.871E-06 841L595.32 841L595.32 841L595.32 -0.9199829L595.32 -0.9199829L8.871E-06 -0.9199829z" /></clipPath><clipPath id="270"><path clip-rule="evenodd" d="M8.871E-06 841L595.32 841L595.32 841L595.32 -0.9199829L595.32 -0.9199829L8.871E-06 -0.9199829z" /></clipPath><clipPath id="271"><path clip-rule="evenodd" d="M8.871E-06 841L595.32 841L595.32 841L595.32 -0.9199829L595.32 -0.9199829L8.871E-06 -0.9199829z" /></clipPath><clipPath id="272"><path clip-rule="evenodd" d="M8.871E-06 841L595.32 841L595.32 841L595.32 -0.9199829L595.32 -0.9199829L8.871E-06 -0.9199829z" /></clipPath><clipPath id="273"><path clip-rule="evenodd" d="M8.871E-06 841L595.32 841L595.32 841L595.32 -0.9199829L595.32 -0.9199829L8.871E-06 -0.9199829z" /></clipPath><clipPath id="274"><path clip-rule="evenodd" d="M8.871E-06 841L595.32 841L595.32 841L595.32 -0.9199829L595.32 -0.9199829L8.871E-06 -0.9199829z" /></clipPath><clipPath id="275"><path clip-rule="evenodd" d="M8.871E-06 841L595.32 841L595.32 841L595.32 -0.9199829L595.32 -0.9199829L8.871E-06 -0.9199829z" /></clipPath><clipPath id="276"><path clip-rule="evenodd" d="M8.871E-06 841L595.32 841L595.32 841L595.32 -0.9199829L595.32 -0.9199829L8.871E-06 -0.9199829z" /></clipPath><clipPath id="277"><path clip-rule="evenodd" d="M8.871E-06 841L595.32 841L595.32 841L595.32 -0.9199829L595.32 -0.9199829L8.871E-06 -0.9199829z" /></clipPath><clipPath id="278"><path clip-rule="evenodd" d="M8.871E-06 841L595.32 841L595.32 841L595.32 -0.9199829L595.32 -0.9199829L8.871E-06 -0.9199829z" /></clipPath><clipPath id="279"><path clip-rule="evenodd" d="M8.871E-06 841L595.32 841L595.32 841L595.32 -0.9199829L595.32 -0.9199829L8.871E-06 -0.9199829z" /></clipPath><clipPath id="280"><path clip-rule="evenodd" d="M8.871E-06 841L595.32 841L595.32 841L595.32 -0.9199829L595.32 -0.9199829L8.871E-06 -0.9199829z" /></clipPath><clipPath id="281"><path clip-rule="evenodd" d="M8.871E-06 841L595.32 841L595.32 841L595.32 -0.9199829L595.32 -0.9199829L8.871E-06 -0.9199829z" /></clipPath><clipPath id="282"><path clip-rule="evenodd" d="M8.871E-06 841L595.32 841L595.32 841L595.32 -0.9199829L595.32 -0.9199829L8.871E-06 -0.9199829z" /></clipPath><clipPath id="283"><path clip-rule="evenodd" d="M8.871E-06 841L595.32 841L595.32 841L595.32 -0.9199829L595.32 -0.9199829L8.871E-06 -0.9199829z" /></clipPath><clipPath id="284"><path clip-rule="evenodd" d="M8.871E-06 841L595.32 841L595.32 841L595.32 -0.9199829L595.32 -0.9199829L8.871E-06 -0.9199829z" /></clipPath><clipPath id="285"><path clip-rule="evenodd" d="M8.871E-06 841L595.32 841L595.32 841L595.32 -0.9199829L595.32 -0.9199829L8.871E-06 -0.9199829z" /></clipPath><clipPath id="286"><path clip-rule="evenodd" d="M8.871E-06 841L595.32 841L595.32 841L595.32 -0.9199829L595.32 -0.9199829L8.871E-06 -0.9199829z" /></clipPath><clipPath id="287"><path clip-rule="evenodd" d="M8.871E-06 841L595.32 841L595.32 841L595.32 -0.9199829L595.32 -0.9199829L8.871E-06 -0.9199829z" /></clipPath><clipPath id="288"><path clip-rule="evenodd" d="M8.871E-06 841L595.32 841L595.32 841L595.32 -0.9199829L595.32 -0.9199829L8.871E-06 -0.9199829z" /></clipPath><clipPath id="289"><path clip-rule="evenodd" d="M8.871E-06 841L595.32 841L595.32 841L595.32 -0.9199829L595.32 -0.9199829L8.871E-06 -0.9199829z" /></clipPath><clipPath id="290"><path clip-rule="evenodd" d="M8.871E-06 841L595.32 841L595.32 841L595.32 -0.9199829L595.32 -0.9199829L8.871E-06 -0.9199829z" /></clipPath><clipPath id="291"><path clip-rule="evenodd" d="M8.871E-06 841L595.32 841L595.32 841L595.32 -0.9199829L595.32 -0.9199829L8.871E-06 -0.9199829z" /></clipPath><clipPath id="292"><path clip-rule="evenodd" d="M8.871E-06 841L595.32 841L595.32 841L595.32 -0.9199829L595.32 -0.9199829L8.871E-06 -0.9199829z" /></clipPath><clipPath id="293"><path clip-rule="evenodd" d="M8.871E-06 841L595.32 841L595.32 841L595.32 -0.9199829L595.32 -0.9199829L8.871E-06 -0.9199829z" /></clipPath><clipPath id="294"><path clip-rule="evenodd" d="M8.871E-06 841L595.32 841L595.32 841L595.32 -0.9199829L595.32 -0.9199829L8.871E-06 -0.9199829z" /></clipPath><clipPath id="295"><path clip-rule="evenodd" d="M8.871E-06 841L595.32 841L595.32 841L595.32 -0.9199829L595.32 -0.9199829L8.871E-06 -0.9199829z" /></clipPath><clipPath id="296"><path clip-rule="evenodd" d="M8.871E-06 841L595.32 841L595.32 841L595.32 -0.9199829L595.32 -0.9199829L8.871E-06 -0.9199829z" /></clipPath><clipPath id="297"><path clip-rule="evenodd" d="M8.871E-06 841L595.32 841L595.32 841L595.32 -0.9199829L595.32 -0.9199829L8.871E-06 -0.9199829z" /></clipPath><clipPath id="298"><path clip-rule="evenodd" d="M8.871E-06 841L595.32 841L595.32 841L595.32 -0.9199829L595.32 -0.9199829L8.871E-06 -0.9199829z" /></clipPath><clipPath id="299"><path clip-rule="evenodd" d="M8.871E-06 841L595.32 841L595.32 841L595.32 -0.9199829L595.32 -0.9199829L8.871E-06 -0.9199829z" /></clipPath><clipPath id="300"><path clip-rule="evenodd" d="M8.871E-06 841L595.32 841L595.32 841L595.32 -0.9199829L595.32 -0.9199829L8.871E-06 -0.9199829z" /></clipPath><clipPath id="301"><path clip-rule="evenodd" d="M8.871E-06 841L595.32 841L595.32 841L595.32 -0.9199829L595.32 -0.9199829L8.871E-06 -0.9199829z" /></clipPath><clipPath id="302"><path clip-rule="evenodd" d="M8.871E-06 841L595.32 841L595.32 841L595.32 -0.9199829L595.32 -0.9199829L8.871E-06 -0.9199829z" /></clipPath><clipPath id="303"><path clip-rule="evenodd" d="M8.871E-06 841L595.32 841L595.32 841L595.32 -0.9199829L595.32 -0.9199829L8.871E-06 -0.9199829z" /></clipPath><clipPath id="304"><path clip-rule="evenodd" d="M8.871E-06 841L595.32 841L595.32 841L595.32 -0.9199829L595.32 -0.9199829L8.871E-06 -0.9199829z" /></clipPath><clipPath id="305"><path clip-rule="evenodd" d="M8.871E-06 841L595.32 841L595.32 841L595.32 -0.9199829L595.32 -0.9199829L8.871E-06 -0.9199829z" /></clipPath><clipPath id="306"><path clip-rule="evenodd" d="M8.871E-06 841L595.32 841L595.32 841L595.32 -0.9199829L595.32 -0.9199829L8.871E-06 -0.9199829z" /></clipPath><clipPath id="307"><path clip-rule="evenodd" d="M8.871E-06 841L595.32 841L595.32 841L595.32 -0.9199829L595.32 -0.9199829L8.871E-06 -0.9199829z" /></clipPath><clipPath id="308"><path clip-rule="evenodd" d="M8.871E-06 841L595.32 841L595.32 841L595.32 -0.9199829L595.32 -0.9199829L8.871E-06 -0.9199829z" /></clipPath><clipPath id="309"><path clip-rule="evenodd" d="M8.871E-06 841L595.32 841L595.32 841L595.32 -0.9199829L595.32 -0.9199829L8.871E-06 -0.9199829z" /></clipPath><clipPath id="310"><path clip-rule="evenodd" d="M8.871E-06 841L595.32 841L595.32 841L595.32 -0.9199829L595.32 -0.9199829L8.871E-06 -0.9199829z" /></clipPath><clipPath id="311"><path clip-rule="evenodd" d="M8.871E-06 841L595.32 841L595.32 841L595.32 -0.9199829L595.32 -0.9199829L8.871E-06 -0.9199829z" /></clipPath><clipPath id="312"><path clip-rule="evenodd" d="M8.871E-06 841L595.32 841L595.32 841L595.32 -0.9199829L595.32 -0.9199829L8.871E-06 -0.9199829z" /></clipPath><clipPath id="313"><path clip-rule="evenodd" d="M8.871E-06 841L595.32 841L595.32 841L595.32 -0.9199829L595.32 -0.9199829L8.871E-06 -0.9199829z" /></clipPath><clipPath id="314"><path clip-rule="evenodd" d="M8.871E-06 841L595.32 841L595.32 841L595.32 -0.9199829L595.32 -0.9199829L8.871E-06 -0.9199829z" /></clipPath><clipPath id="315"><path clip-rule="evenodd" d="M8.871E-06 841L595.32 841L595.32 841L595.32 -0.9199829L595.32 -0.9199829L8.871E-06 -0.9199829z" /></clipPath><clipPath id="316"><path clip-rule="evenodd" d="M8.871E-06 841L595.32 841L595.32 841L595.32 -0.9199829L595.32 -0.9199829L8.871E-06 -0.9199829z" /></clipPath><clipPath id="317"><path clip-rule="evenodd" d="M8.871E-06 841L595.32 841L595.32 841L595.32 -0.9199829L595.32 -0.9199829L8.871E-06 -0.9199829z" /></clipPath><clipPath id="318"><path clip-rule="evenodd" d="M8.871E-06 841L595.32 841L595.32 841L595.32 -0.9199829L595.32 -0.9199829L8.871E-06 -0.9199829z" /></clipPath><clipPath id="319"><path clip-rule="evenodd" d="M8.871E-06 841L595.32 841L595.32 841L595.32 -0.9199829L595.32 -0.9199829L8.871E-06 -0.9199829z" /></clipPath><clipPath id="320"><path clip-rule="evenodd" d="M8.871E-06 841L595.32 841L595.32 841L595.32 -0.9199829L595.32 -0.9199829L8.871E-06 -0.9199829z" /></clipPath><clipPath id="321"><path clip-rule="evenodd" d="M8.871E-06 841L595.32 841L595.32 841L595.32 -0.9199829L595.32 -0.9199829L8.871E-06 -0.9199829z" /></clipPath><clipPath id="322"><path clip-rule="evenodd" d="M8.871E-06 841L595.32 841L595.32 841L595.32 -0.9199829L595.32 -0.9199829L8.871E-06 -0.9199829z" /></clipPath><clipPath id="323"><path clip-rule="evenodd" d="M8.871E-06 841L595.32 841L595.32 841L595.32 -0.9199829L595.32 -0.9199829L8.871E-06 -0.9199829z" /></clipPath><clipPath id="324"><path clip-rule="evenodd" d="M8.871E-06 841L595.32 841L595.32 841L595.32 -0.9199829L595.32 -0.9199829L8.871E-06 -0.9199829z" /></clipPath><clipPath id="325"><path clip-rule="evenodd" d="M8.871E-06 841L595.32 841L595.32 841L595.32 -0.9199829L595.32 -0.9199829L8.871E-06 -0.9199829z" /></clipPath><clipPath id="326"><path clip-rule="evenodd" d="M8.871E-06 841L595.32 841L595.32 841L595.32 -0.9199829L595.32 -0.9199829L8.871E-06 -0.9199829z" /></clipPath><clipPath id="327"><path clip-rule="evenodd" d="M0 840.9999L595.32 840.9999L595.32 840.9999L595.32 -0.9200439L595.32 -0.9200439L0 -0.9200439z" /></clipPath><clipPath id="328"><path clip-rule="evenodd" d="M310.96 502.29L370.9593 502.29L370.9593 502.29L370.9593 482.24L370.9593 482.24L310.96 482.24z" /></clipPath><clipPath id="329"><path clip-rule="evenodd" d="M8.871E-06 841L595.32 841L595.32 841L595.32 -0.9199829L595.32 -0.9199829L8.871E-06 -0.9199829z" /></clipPath><clipPath id="330"><path clip-rule="evenodd" d="M8.871E-06 841L595.32 841L595.32 841L595.32 -0.9199829L595.32 -0.9199829L8.871E-06 -0.9199829z" /></clipPath><clipPath id="331"><path clip-rule="evenodd" d="M8.871E-06 841L595.32 841L595.32 841L595.32 -0.9199829L595.32 -0.9199829L8.871E-06 -0.9199829z" /></clipPath><clipPath id="332"><path clip-rule="evenodd" d="M8.871E-06 841L595.32 841L595.32 841L595.32 -0.9199829L595.32 -0.9199829L8.871E-06 -0.9199829z" /></clipPath><clipPath id="333"><path clip-rule="evenodd" d="M8.871E-06 841L595.32 841L595.32 841L595.32 -0.9199829L595.32 -0.9199829L8.871E-06 -0.9199829z" /></clipPath><clipPath id="334"><path clip-rule="evenodd" d="M8.871E-06 841L595.32 841L595.32 841L595.32 -0.9199829L595.32 -0.9199829L8.871E-06 -0.9199829z" /></clipPath><clipPath id="335"><path clip-rule="evenodd" d="M8.871E-06 841L595.32 841L595.32 841L595.32 -0.9199829L595.32 -0.9199829L8.871E-06 -0.9199829z" /></clipPath><clipPath id="336"><path clip-rule="evenodd" d="M8.871E-06 841L595.32 841L595.32 841L595.32 -0.9199829L595.32 -0.9199829L8.871E-06 -0.9199829z" /></clipPath><clipPath id="337"><path clip-rule="evenodd" d="M8.871E-06 841L595.32 841L595.32 841L595.32 -0.9199829L595.32 -0.9199829L8.871E-06 -0.9199829z" /></clipPath><clipPath id="338"><path clip-rule="evenodd" d="M8.871E-06 841L595.32 841L595.32 841L595.32 -0.9199829L595.32 -0.9199829L8.871E-06 -0.9199829z" /></clipPath><clipPath id="339"><path clip-rule="evenodd" d="M8.871E-06 841L595.32 841L595.32 841L595.32 -0.9199829L595.32 -0.9199829L8.871E-06 -0.9199829z" /></clipPath><clipPath id="340"><path clip-rule="evenodd" d="M8.871E-06 841L595.32 841L595.32 841L595.32 -0.9199829L595.32 -0.9199829L8.871E-06 -0.9199829z" /></clipPath><clipPath id="341"><path clip-rule="evenodd" d="M8.871E-06 841L595.32 841L595.32 841L595.32 -0.9199829L595.32 -0.9199829L8.871E-06 -0.9199829z" /></clipPath><clipPath id="342"><path clip-rule="evenodd" d="M8.871E-06 841L595.32 841L595.32 841L595.32 -0.9199829L595.32 -0.9199829L8.871E-06 -0.9199829z" /></clipPath><clipPath id="343"><path clip-rule="evenodd" d="M8.871E-06 841L595.32 841L595.32 841L595.32 -0.9199829L595.32 -0.9199829L8.871E-06 -0.9199829z" /></clipPath><clipPath id="344"><path clip-rule="evenodd" d="M8.871E-06 841L595.32 841L595.32 841L595.32 -0.9199829L595.32 -0.9199829L8.871E-06 -0.9199829z" /></clipPath><clipPath id="345"><path clip-rule="evenodd" d="M8.871E-06 841L595.32 841L595.32 841L595.32 -0.9199829L595.32 -0.9199829L8.871E-06 -0.9199829z" /></clipPath><clipPath id="346"><path clip-rule="evenodd" d="M8.871E-06 841L595.32 841L595.32 841L595.32 -0.9199829L595.32 -0.9199829L8.871E-06 -0.9199829z" /></clipPath><clipPath id="347"><path clip-rule="evenodd" d="M8.871E-06 841L595.32 841L595.32 841L595.32 -0.9199829L595.32 -0.9199829L8.871E-06 -0.9199829z" /></clipPath><clipPath id="348"><path clip-rule="evenodd" d="M8.871E-06 841L595.32 841L595.32 841L595.32 -0.9199829L595.32 -0.9199829L8.871E-06 -0.9199829z" /></clipPath><clipPath id="349"><path clip-rule="evenodd" d="M8.871E-06 841L595.32 841L595.32 841L595.32 -0.9199829L595.32 -0.9199829L8.871E-06 -0.9199829z" /></clipPath><clipPath id="350"><path clip-rule="evenodd" d="M8.871E-06 841L595.32 841L595.32 841L595.32 -0.9199829L595.32 -0.9199829L8.871E-06 -0.9199829z" /></clipPath><clipPath id="351"><path clip-rule="evenodd" d="M8.871E-06 841L595.32 841L595.32 841L595.32 -0.9199829L595.32 -0.9199829L8.871E-06 -0.9199829z" /></clipPath><clipPath id="352"><path clip-rule="evenodd" d="M8.871E-06 841L595.32 841L595.32 841L595.32 -0.9199829L595.32 -0.9199829L8.871E-06 -0.9199829z" /></clipPath><clipPath id="353"><path clip-rule="evenodd" d="M8.871E-06 841L595.32 841L595.32 841L595.32 -0.9199829L595.32 -0.9199829L8.871E-06 -0.9199829z" /></clipPath><clipPath id="354"><path clip-rule="evenodd" d="M8.871E-06 841L595.32 841L595.32 841L595.32 -0.9199829L595.32 -0.9199829L8.871E-06 -0.9199829z" /></clipPath><clipPath id="355"><path clip-rule="evenodd" d="M8.871E-06 841L595.32 841L595.32 841L595.32 -0.9199829L595.32 -0.9199829L8.871E-06 -0.9199829z" /></clipPath><clipPath id="356"><path clip-rule="evenodd" d="M8.871E-06 841L595.32 841L595.32 841L595.32 -0.9199829L595.32 -0.9199829L8.871E-06 -0.9199829z" /></clipPath><clipPath id="357"><path clip-rule="evenodd" d="M8.871E-06 841L595.32 841L595.32 841L595.32 -0.9199829L595.32 -0.9199829L8.871E-06 -0.9199829z" /></clipPath><clipPath id="358"><path clip-rule="evenodd" d="M8.871E-06 841L595.32 841L595.32 841L595.32 -0.9199829L595.32 -0.9199829L8.871E-06 -0.9199829z" /></clipPath><clipPath id="359"><path clip-rule="evenodd" d="M8.871E-06 841L595.32 841L595.32 841L595.32 -0.9199829L595.32 -0.9199829L8.871E-06 -0.9199829z" /></clipPath><clipPath id="360"><path clip-rule="evenodd" d="M8.871E-06 841L595.32 841L595.32 841L595.32 -0.9199829L595.32 -0.9199829L8.871E-06 -0.9199829z" /></clipPath><clipPath id="361"><path clip-rule="evenodd" d="M8.871E-06 841L595.32 841L595.32 841L595.32 -0.9199829L595.32 -0.9199829L8.871E-06 -0.9199829z" /></clipPath><clipPath id="362"><path clip-rule="evenodd" d="M8.871E-06 841L595.32 841L595.32 841L595.32 -0.9199829L595.32 -0.9199829L8.871E-06 -0.9199829z" /></clipPath><clipPath id="363"><path clip-rule="evenodd" d="M8.871E-06 841L595.32 841L595.32 841L595.32 -0.9199829L595.32 -0.9199829L8.871E-06 -0.9199829z" /></clipPath><clipPath id="364"><path clip-rule="evenodd" d="M8.871E-06 841L595.32 841L595.32 841L595.32 -0.9199829L595.32 -0.9199829L8.871E-06 -0.9199829z" /></clipPath><clipPath id="365"><path clip-rule="evenodd" d="M8.871E-06 841L595.32 841L595.32 841L595.32 -0.9199829L595.32 -0.9199829L8.871E-06 -0.9199829z" /></clipPath><clipPath id="366"><path clip-rule="evenodd" d="M8.871E-06 841L595.32 841L595.32 841L595.32 -0.9199829L595.32 -0.9199829L8.871E-06 -0.9199829z" /></clipPath><clipPath id="367"><path clip-rule="evenodd" d="M8.871E-06 841L595.32 841L595.32 841L595.32 -0.9199829L595.32 -0.9199829L8.871E-06 -0.9199829z" /></clipPath><clipPath id="368"><path clip-rule="evenodd" d="M8.871E-06 841L595.32 841L595.32 841L595.32 -0.9199829L595.32 -0.9199829L8.871E-06 -0.9199829z" /></clipPath><clipPath id="369"><path clip-rule="evenodd" d="M8.871E-06 841L595.32 841L595.32 841L595.32 -0.9199829L595.32 -0.9199829L8.871E-06 -0.9199829z" /></clipPath><clipPath id="370"><path clip-rule="evenodd" d="M8.871E-06 841L595.32 841L595.32 841L595.32 -0.9199829L595.32 -0.9199829L8.871E-06 -0.9199829z" /></clipPath><clipPath id="371"><path clip-rule="evenodd" d="M8.871E-06 841L595.32 841L595.32 841L595.32 -0.9199829L595.32 -0.9199829L8.871E-06 -0.9199829z" /></clipPath><clipPath id="372"><path clip-rule="evenodd" d="M8.871E-06 841L595.32 841L595.32 841L595.32 -0.9199829L595.32 -0.9199829L8.871E-06 -0.9199829z" /></clipPath><clipPath id="373"><path clip-rule="evenodd" d="M8.871E-06 841L595.32 841L595.32 841L595.32 -0.9199829L595.32 -0.9199829L8.871E-06 -0.9199829z" /></clipPath><clipPath id="374"><path clip-rule="evenodd" d="M8.871E-06 841L595.32 841L595.32 841L595.32 -0.9199829L595.32 -0.9199829L8.871E-06 -0.9199829z" /></clipPath><clipPath id="375"><path clip-rule="evenodd" d="M8.871E-06 841L595.32 841L595.32 841L595.32 -0.9199829L595.32 -0.9199829L8.871E-06 -0.9199829z" /></clipPath><clipPath id="376"><path clip-rule="evenodd" d="M8.871E-06 841L595.32 841L595.32 841L595.32 -0.9199829L595.32 -0.9199829L8.871E-06 -0.9199829z" /></clipPath><clipPath id="377"><path clip-rule="evenodd" d="M8.871E-06 841L595.32 841L595.32 841L595.32 -0.9199829L595.32 -0.9199829L8.871E-06 -0.9199829z" /></clipPath><clipPath id="378"><path clip-rule="evenodd" d="M8.871E-06 841L595.32 841L595.32 841L595.32 -0.9199829L595.32 -0.9199829L8.871E-06 -0.9199829z" /></clipPath><clipPath id="379"><path clip-rule="evenodd" d="M8.871E-06 841L595.32 841L595.32 841L595.32 -0.9199829L595.32 -0.9199829L8.871E-06 -0.9199829z" /></clipPath><clipPath id="380"><path clip-rule="evenodd" d="M8.871E-06 841L595.32 841L595.32 841L595.32 -0.9199829L595.32 -0.9199829L8.871E-06 -0.9199829z" /></clipPath><clipPath id="381"><path clip-rule="evenodd" d="M8.871E-06 841L595.32 841L595.32 841L595.32 -0.9199829L595.32 -0.9199829L8.871E-06 -0.9199829z" /></clipPath><clipPath id="382"><path clip-rule="evenodd" d="M8.871E-06 841L595.32 841L595.32 841L595.32 -0.9199829L595.32 -0.9199829L8.871E-06 -0.9199829z" /></clipPath><clipPath id="383"><path clip-rule="evenodd" d="M8.871E-06 841L595.32 841L595.32 841L595.32 -0.9199829L595.32 -0.9199829L8.871E-06 -0.9199829z" /></clipPath><clipPath id="384"><path clip-rule="evenodd" d="M8.871E-06 841L595.32 841L595.32 841L595.32 -0.9199829L595.32 -0.9199829L8.871E-06 -0.9199829z" /></clipPath><clipPath id="385"><path clip-rule="evenodd" d="M8.871E-06 841L595.32 841L595.32 841L595.32 -0.9199829L595.32 -0.9199829L8.871E-06 -0.9199829z" /></clipPath><clipPath id="386"><path clip-rule="evenodd" d="M8.871E-06 841L595.32 841L595.32 841L595.32 -0.9199829L595.32 -0.9199829L8.871E-06 -0.9199829z" /></clipPath></defs><g transform="matrix(1.333333 0 0 1.333333 0 0)"><g clip-path="url(#1)"><g clip-path="url(#2)"></g><g clip-path="url(#3)"></g><g clip-path="url(#4)"></g><g clip-path="url(#5)"></g><g clip-path="url(#6)"></g><g clip-path="url(#7)"></g><g clip-path="url(#8)"></g><g clip-path="url(#9)"></g><g clip-path="url(#10)"></g><g clip-path="url(#11)"></g><g clip-path="url(#12)"></g><g clip-path="url(#13)"></g><g clip-path="url(#14)"></g><g clip-path="url(#15)"></g><g clip-path="url(#16)"></g><g clip-path="url(#17)"></g><g clip-path="url(#18)"></g><g clip-path="url(#19)"></g><g clip-path="url(#20)"></g><g clip-path="url(#21)"></g><g clip-path="url(#22)"></g><g clip-path="url(#23)"></g><g clip-path="url(#24)"></g><g clip-path="url(#25)"></g><g clip-path="url(#26)"></g><g clip-path="url(#27)"></g><g clip-path="url(#28)"></g><g clip-path="url(#29)"></g><g clip-path="url(#30)"></g><g clip-path="url(#31)"></g><g clip-path="url(#32)"></g><g clip-path="url(#33)"></g><g clip-path="url(#34)"></g><g clip-path="url(#35)"></g><g clip-path="url(#36)"></g><g clip-path="url(#37)"></g><path transform="matrix(1 0 0 -1 0 841)" d="M61.15 393.02L547.15 393.02L547.15 393.02L547.15 783.72L547.15 783.72L61.15 783.72z" stroke="none" fill="#FFFFFF" fill-rule="evenodd" /><g clip-path="url(#38)"><g clip-path="url(#39)"></g><g clip-path="url(#40)"></g><g clip-path="url(#41)"></g><g clip-path="url(#42)"></g><g clip-path="url(#43)"></g><g clip-path="url(#44)"></g><g clip-path="url(#45)"></g><g clip-path="url(#46)"></g><g clip-path="url(#47)"></g><g clip-path="url(#48)"></g><g clip-path="url(#49)"></g><g clip-path="url(#50)"><path transform="matrix(1 0 0 -1 0 841)" d="M59.76 757.32L541.54 757.32L541.54 757.32L541.54 758.04L541.54 758.04L59.76 758.04z" stroke="none" fill="#000000" fill-rule="evenodd" /><path transform="matrix(1 0 0 -1 0 841)" d="M59.76 758.76L541.54 758.76L541.54 758.76L541.54 759.48L541.54 759.48L59.76 759.48z" stroke="none" fill="#000000" fill-rule="evenodd" /></g><g clip-path="url(#51)"></g><g clip-path="url(#52)"></g><g clip-path="url(#53)"></g><g clip-path="url(#54)"></g><g clip-path="url(#55)"></g><g clip-path="url(#56)"></g><g clip-path="url(#57)"></g><g clip-path="url(#58)"></g><g clip-path="url(#59)"></g><g clip-path="url(#60)"></g><g clip-path="url(#61)"></g><g clip-path="url(#62)"></g><g clip-path="url(#63)"></g><g clip-path="url(#64)"></g><g clip-path="url(#65)"></g><g clip-path="url(#66)"></g><g clip-path="url(#67)"></g><g clip-path="url(#68)"></g><g clip-path="url(#69)"></g><g clip-path="url(#70)"></g><g clip-path="url(#71)"></g><g clip-path="url(#72)"></g><g clip-path="url(#73)"></g><g clip-path="url(#74)"></g><g clip-path="url(#75)"></g><g clip-path="url(#76)"></g><g clip-path="url(#77)"></g><g clip-path="url(#78)"></g><g clip-path="url(#79)"></g><g clip-path="url(#80)"></g><g clip-path="url(#81)"></g><g clip-path="url(#82)"></g><g clip-path="url(#83)"></g><g clip-path="url(#84)"></g><g clip-path="url(#85)"></g><g clip-path="url(#86)"></g><g clip-path="url(#87)"></g><g clip-path="url(#88)"></g><g clip-path="url(#89)"></g><g clip-path="url(#90)"></g><g clip-path="url(#91)"></g><g clip-path="url(#92)"></g><g clip-path="url(#93)"></g><g clip-path="url(#94)"></g><g clip-path="url(#95)"></g><g clip-path="url(#96)"></g><g clip-path="url(#97)"></g><g clip-path="url(#98)"></g><g clip-path="url(#99)"></g><g clip-path="url(#100)"></g><g clip-path="url(#101)"></g><g clip-path="url(#102)"></g><g clip-path="url(#103)"></g><g clip-path="url(#104)"></g><g clip-path="url(#105)"></g><g clip-path="url(#106)"></g><g clip-path="url(#107)"></g><g clip-path="url(#108)"></g><g clip-path="url(#109)"></g><g clip-path="url(#110)"></g><g clip-path="url(#111)"></g><g clip-path="url(#112)"></g><g clip-path="url(#113)"></g><g clip-path="url(#114)"></g><g clip-path="url(#115)"></g><g clip-path="url(#116)"></g><g clip-path="url(#117)"></g><g clip-path="url(#118)"></g><g clip-path="url(#119)"></g><g clip-path="url(#120)"></g><g clip-path="url(#121)"></g><g clip-path="url(#122)"></g><g clip-path="url(#123)"></g><g clip-path="url(#124)"></g><g clip-path="url(#125)"></g><g clip-path="url(#126)"></g><g clip-path="url(#127)"></g><g clip-path="url(#128)"></g><g clip-path="url(#129)"></g><g clip-path="url(#130)"></g><g clip-path="url(#131)"></g><g clip-path="url(#132)"></g><g clip-path="url(#133)"></g><g clip-path="url(#134)"></g><g clip-path="url(#135)"></g><g clip-path="url(#136)"></g><g clip-path="url(#137)"></g><g clip-path="url(#138)"></g><g clip-path="url(#139)"></g><g clip-path="url(#140)"></g><g clip-path="url(#141)"></g><g clip-path="url(#142)"></g><g clip-path="url(#143)"></g><g clip-path="url(#144)"></g><g clip-path="url(#145)"></g><g clip-path="url(#146)"></g><g clip-path="url(#147)"></g><g clip-path="url(#148)"></g><g clip-path="url(#149)"></g><g clip-path="url(#150)"></g><g clip-path="url(#151)"></g><g clip-path="url(#152)"></g><g clip-path="url(#153)"></g><g clip-path="url(#154)"></g><g clip-path="url(#155)"></g><g clip-path="url(#156)"></g><g clip-path="url(#157)"></g><g clip-path="url(#158)"></g><g clip-path="url(#159)"></g><g clip-path="url(#160)"></g><g clip-path="url(#161)"></g><g clip-path="url(#162)"></g><g clip-path="url(#163)"></g><g clip-path="url(#164)"></g><g clip-path="url(#165)"></g><g clip-path="url(#166)"></g><g clip-path="url(#167)"></g><g clip-path="url(#168)"></g><g clip-path="url(#169)"></g><g clip-path="url(#170)"></g><g clip-path="url(#171)"></g><g clip-path="url(#172)"></g><g clip-path="url(#173)"></g><g clip-path="url(#174)"></g></g><g clip-path="url(#175)"><g clip-path="url(#176)"></g><g clip-path="url(#177)"></g><g clip-path="url(#178)"></g><g clip-path="url(#179)"></g><g clip-path="url(#180)"></g><g clip-path="url(#181)"></g><g clip-path="url(#182)"></g><g clip-path="url(#183)"></g><g clip-path="url(#184)"></g><g clip-path="url(#185)"></g><g clip-path="url(#186)"></g><g clip-path="url(#187)"></g></g><g clip-path="url(#188)"><g clip-path="url(#189)"></g></g><g clip-path="url(#190)"><g clip-path="url(#191)"></g></g><g clip-path="url(#192)"><g clip-path="url(#193)"></g><g clip-path="url(#194)"></g></g><g clip-path="url(#195)"><g clip-path="url(#196)"></g><g clip-path="url(#197)"></g><g clip-path="url(#198)"></g><g clip-path="url(#199)"></g><g clip-path="url(#200)"></g><g clip-path="url(#201)"></g><g clip-path="url(#202)"></g><g clip-path="url(#203)"></g><g clip-path="url(#204)"></g><g clip-path="url(#205)"></g><g clip-path="url(#206)"></g><g clip-path="url(#207)"></g><g clip-path="url(#208)"></g><g clip-path="url(#209)"></g></g><g clip-path="url(#210)"><g clip-path="url(#211)"></g><g clip-path="url(#212)"></g><g clip-path="url(#213)"></g><g clip-path="url(#214)"></g></g><g clip-path="url(#215)"><g clip-path="url(#216)"></g><g clip-path="url(#217)"></g></g><g clip-path="url(#218)"></g><g clip-path="url(#219)"></g><g clip-path="url(#220)"></g><g clip-path="url(#221)"></g><g clip-path="url(#222)"></g><g clip-path="url(#223)"></g><g clip-path="url(#224)"></g><g clip-path="url(#225)"></g><g clip-path="url(#226)"></g><g clip-path="url(#227)"></g><g clip-path="url(#228)"></g><g clip-path="url(#229)"></g><g clip-path="url(#230)"></g><g clip-path="url(#231)"></g><g clip-path="url(#232)"></g><g clip-path="url(#233)"></g><g clip-path="url(#234)"></g><g clip-path="url(#235)"></g><g clip-path="url(#236)"></g><g clip-path="url(#237)"></g><g clip-path="url(#238)"></g><g clip-path="url(#239)"></g><g clip-path="url(#240)"></g><g clip-path="url(#241)"></g><g clip-path="url(#242)"></g><g clip-path="url(#243)"></g><g clip-path="url(#244)"></g><g clip-path="url(#245)"></g><g clip-path="url(#246)"></g><g clip-path="url(#247)"></g><g clip-path="url(#248)"></g><g clip-path="url(#249)"></g><g clip-path="url(#250)"></g><g clip-path="url(#251)"></g><g clip-path="url(#252)"></g><g clip-path="url(#253)"></g><g clip-path="url(#254)"></g><g clip-path="url(#255)"></g><g clip-path="url(#256)"></g><g clip-path="url(#257)"></g><g clip-path="url(#258)"></g><g clip-path="url(#259)"></g><g clip-path="url(#260)"></g><g clip-path="url(#261)"></g><g clip-path="url(#262)"></g><g clip-path="url(#263)"></g><g clip-path="url(#264)"></g><g clip-path="url(#265)"></g><g clip-path="url(#266)"></g><g clip-path="url(#267)"></g><g clip-path="url(#268)"></g><g clip-path="url(#269)"></g><g clip-path="url(#270)"></g><g clip-path="url(#271)"></g><g clip-path="url(#272)"></g><g clip-path="url(#273)"></g><g clip-path="url(#274)"></g><g clip-path="url(#275)"></g><g clip-path="url(#276)"></g><g clip-path="url(#277)"></g><g clip-path="url(#278)"></g><g clip-path="url(#279)"></g><g clip-path="url(#280)"></g><g clip-path="url(#281)"></g><g clip-path="url(#282)"></g><g clip-path="url(#283)"></g><g clip-path="url(#284)"></g><g clip-path="url(#285)"></g><g clip-path="url(#286)"></g><g clip-path="url(#287)"></g><g clip-path="url(#288)"></g><g clip-path="url(#289)"></g><g clip-path="url(#290)"></g><g clip-path="url(#291)"></g><g clip-path="url(#292)"></g><g clip-path="url(#293)"></g><g clip-path="url(#294)"></g><g clip-path="url(#295)"></g><g clip-path="url(#296)"></g><g clip-path="url(#297)"></g><g clip-path="url(#298)"></g><g clip-path="url(#299)"></g><g clip-path="url(#300)"></g><g clip-path="url(#301)"></g><g clip-path="url(#302)"></g><g clip-path="url(#303)"></g><g clip-path="url(#304)"></g><g clip-path="url(#305)"></g><g clip-path="url(#306)"></g><g clip-path="url(#307)"></g><g clip-path="url(#308)"></g><g clip-path="url(#309)"></g><g clip-path="url(#310)"></g><g clip-path="url(#311)"></g><g clip-path="url(#312)"></g><g clip-path="url(#313)"></g><g clip-path="url(#314)"></g><g clip-path="url(#315)"></g><g clip-path="url(#316)"></g><g clip-path="url(#317)"></g><g clip-path="url(#318)"></g><g clip-path="url(#319)"></g><g clip-path="url(#320)"></g><g clip-path="url(#321)"></g><g clip-path="url(#322)"></g><g clip-path="url(#323)"></g><g clip-path="url(#324)"></g><g clip-path="url(#325)"></g><g clip-path="url(#326)"></g><g clip-path="url(#327)"><g clip-path="url(#328)"></g></g><g clip-path="url(#329)"></g><g clip-path="url(#330)"></g><g clip-path="url(#331)"></g><g clip-path="url(#332)"></g><g clip-path="url(#333)"></g><g clip-path="url(#334)"></g><g clip-path="url(#335)"></g><g clip-path="url(#336)"></g><g clip-path="url(#337)"></g><g clip-path="url(#338)"></g><g clip-path="url(#339)"></g><g clip-path="url(#340)"></g><g clip-path="url(#341)"></g><g clip-path="url(#342)"></g><g clip-path="url(#343)"></g><g clip-path="url(#344)"></g><g clip-path="url(#345)"></g><g clip-path="url(#346)"></g><g clip-path="url(#347)"></g><g clip-path="url(#348)"></g><g clip-path="url(#349)"></g><g clip-path="url(#350)"></g><g clip-path="url(#351)"></g><g clip-path="url(#352)"></g><g clip-path="url(#353)"></g><g clip-path="url(#354)"></g><g clip-path="url(#355)"></g><g clip-path="url(#356)"></g><g clip-path="url(#357)"></g><g clip-path="url(#358)"></g><g clip-path="url(#359)"></g><g clip-path="url(#360)"></g><g clip-path="url(#361)"></g><g clip-path="url(#362)"></g><g clip-path="url(#363)"></g><g clip-path="url(#364)"></g><g clip-path="url(#365)"></g><g clip-path="url(#366)"></g><g clip-path="url(#367)"></g><g clip-path="url(#368)"></g><g clip-path="url(#369)"></g><g clip-path="url(#370)"></g><g clip-path="url(#371)"></g><g clip-path="url(#372)"></g><g clip-path="url(#373)"></g><g clip-path="url(#374)"></g><g clip-path="url(#375)"></g><g clip-path="url(#376)"></g><g clip-path="url(#377)"></g><g clip-path="url(#378)"></g><g clip-path="url(#379)"></g><g clip-path="url(#380)"></g><g clip-path="url(#381)"></g><g clip-path="url(#382)"></g><g clip-path="url(#383)"></g><g clip-path="url(#384)"></g><g clip-path="url(#385)"></g><g clip-path="url(#386)"></g></g></g></svg>